<svg width="57" height="35" viewBox="0 0 57 35" fill="none" xmlns="http://www.w3.org/2000/svg">
<path d="M52.125 20L52.125 35L42.375 35L42.375 26L32.625 26L32.625 35L22.875 35L22.875 20L18 20L37.5 2L47.25 11L57 20L52.125 20ZM50.5 11.1395L50.5 3.5L45.625 3.5L45.625 6.6395L50.5 11.1395Z" fill="#FF8A00"/>
<path fill-rule="evenodd" clip-rule="evenodd" d="M14.5277 2.87572C15.0495 2.67617 15.5687 2.56472 16.0842 2.54875C16.859 2.52473 17.4462 2.74698 17.8465 3.21203L21.2888 7.28732L20.7493 7.74335L22.0533 9.30319L25.362 6.52341L24.0555 4.97491L23.4481 5.47524L20.0249 1.42202C19.553 0.86774 18.9786 0.602884 18.3021 0.623846C17.1652 0.659077 15.9092 1.40854 14.5277 2.87572ZM3.63789 16.5531L5.64166 18.9277C10.4919 14.7181 14.875 10.8961 19.7235 6.68422L18.1411 4.80862C13.1559 8.85851 8.6292 12.5105 3.63789 16.5531Z" fill="#FF8A00"/>
</svg>