<svg width="351" height="253" viewBox="0 0 351 253" fill="none" xmlns="http://www.w3.org/2000/svg">
<path d="M317.055 138V253H249.402V184H181.748V253H114.095L114.095 138H80.2681L215.575 0L283.229 69L350.882 138L317.055 138ZM305.78 70.0695V11.5L271.953 11.5V35.5695L305.78 70.0695Z" fill="#FF8A00"/>
<g clip-path="url(#clip0_1027_58)">
<path fill-rule="evenodd" clip-rule="evenodd" d="M48.8742 64.4256C51.3 63.5593 53.7769 63.1738 56.3052 63.3091C60.1054 63.5124 63.16 64.9821 65.4709 67.6994L85.3986 91.4835L83.0723 93.7455L90.6329 102.843L104.911 89.0636L97.3469 80.0269L94.7185 82.502L74.9011 58.8469C72.1722 55.6104 69.1495 53.9132 65.8317 53.7356C60.2558 53.4372 54.6128 56.9951 48.8742 64.4256ZM5.17639 134.554L16.7779 148.411C37.6111 127.475 56.4245 108.457 77.2473 87.5076L68.0847 76.562C46.4708 96.5664 26.826 114.592 5.17639 134.554Z" fill="#FF8A00"/>
</g>
<defs>
<clipPath id="clip0_1027_58">
<rect width="97.1616" height="97.1616" fill="white" transform="matrix(-0.987707 -0.156319 -0.156319 0.987707 111.155 61.4478)"/>
</clipPath>
</defs>
</svg>
