<svg width="18" height="21" viewBox="0 0 18 21" fill="none" xmlns="http://www.w3.org/2000/svg">
<path d="M14.9805 17.8291C18.1947 14.6304 16.7104 10.6668 16.0422 9.45357C15.9664 9.31595 15.6487 9.27005 15.6263 9.41941C15.5733 9.77306 15.4519 10.1926 14.7752 10.0637C14.4278 9.99753 14.2046 9.87988 14.2059 9.44596C14.4373 4.51516 9.77746 1.14393 8.1556 0.0779899C7.93981 -0.063826 7.61882 0.086058 7.66396 0.307243C8.68939 5.33516 6.96854 4.98611 6.33739 4.8318C6.2276 4.80495 6.10819 4.84904 6.05731 4.93173C4.10367 8.10516 4.59785 9.60209 4.54903 10.6441C4.54877 10.7282 4.54835 10.8692 4.54808 10.958C4.54635 11.5301 3.94581 11.8024 3.46105 11.6337C2.59146 11.3309 2.44848 9.54247 2.44623 9.06713C2.44517 8.84338 2.10415 8.77808 1.93727 8.95688C-1.8055 12.9659 0.929146 16.5554 1.87638 17.5804C2.14916 17.8756 2.25672 18.2614 2.10013 18.6067C2.08256 18.6454 2.06194 18.6836 2.03772 18.7208C1.86795 18.9819 2.32051 19.1804 2.32051 19.1804C2.87667 19.5863 4.63096 20.8846 8.36658 20.8952C11.3894 20.9038 13.4319 19.9072 14.2309 19.3638C14.6058 19.1089 14.7725 19.0837 14.7721 18.8139C14.7715 18.4912 14.7637 17.9938 14.9805 17.8291Z" fill="#FCEA2B"/>
<path d="M8.63322 9.37538C8.50695 9.85373 8.07014 10.6851 6.84235 12.1064C6.81716 12.1412 6.79248 12.1752 6.7673 12.21C6.63577 12.4355 6.18966 13.3033 6.31047 14.5193C6.31047 14.5194 6.31047 14.5193 6.31047 14.5194C6.31038 14.52 6.06339 15.9398 5.04517 15.8185C4.82937 15.7928 4.65502 15.7353 4.51427 15.6606C4.25601 15.5236 3.91107 15.6944 3.9419 15.9384C4.07411 16.9848 4.61326 18.5887 6.53722 19.7705C6.53722 19.7705 7.07986 20.1194 7.14603 20.4194C7.1482 20.4293 7.15827 20.436 7.17102 20.436L9.40567 20.4424C9.48329 20.4427 9.49395 20.4348 9.49619 20.4232C9.51151 20.3446 9.65178 20.0139 10.8568 19.1907C11.7045 18.6115 12.2018 17.9172 12.4478 17.4427C12.535 17.2744 12.4061 17.0765 12.1782 17.0465C12.0326 17.0273 11.8766 16.9276 11.7501 16.6573C11.75 16.6569 11.75 16.657 11.7498 16.6566C11.7471 16.6489 11.6588 16.3817 12.0071 15.8187C12.1691 15.5568 12.1885 15.2737 12.162 15.044C12.1381 14.8367 11.8565 14.7161 11.6197 14.8079C11.2871 14.9369 10.8271 14.9795 10.5194 14.4524C10.5194 14.4524 10.242 13.9384 10.4884 12.6659C10.6765 11.6947 10.068 10.0887 9.30048 9.26292C9.11102 9.05915 8.69842 9.12826 8.63322 9.37538Z" fill="#FF8A00"/>
</svg>
