<svg width="33" height="46" viewBox="0 0 33 46" fill="none" xmlns="http://www.w3.org/2000/svg">
<g clip-path="url(#clip0_943_93)">
<path fill-rule="evenodd" clip-rule="evenodd" d="M0 43.1512H1.50233L1.50233 0.744954V0L2.18335 0L30.5634 0L31.2444 0V0.744954V43.1512H33.0034V46H0L0 43.1512ZM4.74997 3.11458L27.9934 3.11458H28.2774V3.42529V42.6908H29.8824V1.48617L2.86094 1.48617L2.86094 43.1512H4.46593V3.42529V3.11458H4.74997ZM5.45494 42.6908H25.7005L25.5705 42.6346L16.0705 41.2158V12.6904L27.2918 4.95638V4.19271L5.45494 4.19271V42.6908ZM17.6926 22.3337L19.1402 21.8807V27.7992L17.6926 27.2264V22.3337Z" fill="#0A8232"/>
</g>
<defs>
<clipPath id="clip0_943_93">
<rect width="33" height="46" fill="white"/>
</clipPath>
</defs>
</svg>
