<svg width="163" height="215" viewBox="0 0 163 215" fill="none" xmlns="http://www.w3.org/2000/svg">
<path fill-rule="evenodd" clip-rule="evenodd" d="M0 200.939H7.39603L7.39603 3.46897V0L10.7487 0L150.464 0L153.817 0V3.46897V200.939H162.477V214.204H0L0 200.939ZM23.3842 14.5034L137.812 14.5034H139.21V15.9503V198.794H147.112V6.9205L14.0845 6.9205L14.0845 200.939H21.9859V15.9503V14.5034H23.3842ZM26.8548 198.794H126.524L125.884 198.533L79.1156 191.926V59.0945L134.358 23.08V19.5238L26.8548 19.5238V198.794ZM87.1013 103.999L94.2277 101.89V129.45L87.1013 126.783V103.999Z" fill="#0A8232"/>
</svg>
