<svg width="50" height="50" viewBox="0 0 50 50" fill="none" xmlns="http://www.w3.org/2000/svg">
<rect x="0.707107" y="24.7488" width="34" height="34" transform="rotate(-45 0.707107 24.7488)" fill="white" stroke="#2B2B2B"/>
<rect x="4.59455" y="37.8233" width="34" height="34" transform="rotate(-77.773 4.59455 37.8233)" stroke="#2B2B2B"/>
<path d="M20.6403 28.1833L20.6667 28.0845C20.9586 27.0392 21.2919 26.2344 21.6666 25.6701C22.0413 25.1058 22.4722 24.6831 22.9594 24.4019C23.4465 24.1206 24.0023 23.8902 24.6269 23.7105C25.0037 23.5997 25.3571 23.4443 25.6871 23.2445C26.0185 23.0392 26.3062 22.7781 26.5499 22.4611C26.7992 22.1455 26.9819 21.7709 27.0981 21.3374C27.2422 20.7995 27.241 20.2992 27.0944 19.8364C26.9478 19.3736 26.6919 18.9786 26.3267 18.6513C25.9614 18.324 25.5208 18.0913 25.005 17.953C24.5549 17.8324 24.0964 17.8096 23.6292 17.8844C23.1621 17.9592 22.735 18.1595 22.3477 18.4851C21.9605 18.8108 21.6581 19.2915 21.4407 19.9274L19.3661 19.3715C19.66 18.4502 20.1155 17.7164 20.7325 17.17C21.355 16.625 22.0755 16.274 22.8941 16.1169C23.7181 15.9612 24.5747 16.0025 25.4638 16.2407C26.4297 16.4995 27.2179 16.9166 27.8284 17.492C28.4445 18.0688 28.8576 18.7442 29.0679 19.5181C29.2836 20.2936 29.2768 21.1094 29.0474 21.9656C28.8856 22.5693 28.646 23.0903 28.3285 23.5288C28.0165 23.9687 27.6362 24.3344 27.1875 24.626C26.7443 24.919 26.2415 25.1489 25.6791 25.3159C25.1152 25.4883 24.643 25.703 24.2625 25.9598C23.8833 26.2112 23.5669 26.547 23.3131 26.9672C23.0594 27.3874 22.8358 27.9363 22.6425 28.6139L22.616 28.7127L20.6403 28.1833ZM20.3881 33.3392C19.982 33.2304 19.6725 32.9916 19.4595 32.6227C19.2466 32.2539 19.1945 31.8665 19.3034 31.4603C19.4122 31.0542 19.651 30.7447 20.0198 30.5317C20.3886 30.3188 20.7761 30.2667 21.1822 30.3756C21.5884 30.4844 21.8979 30.7232 22.1108 31.092C22.3238 31.4608 22.3758 31.8483 22.267 32.2544C22.1949 32.5234 22.0602 32.7519 21.8627 32.9402C21.6707 33.1299 21.4438 33.2632 21.182 33.3401C20.9272 33.413 20.6625 33.4127 20.3881 33.3392Z" fill="black"/>
</svg>

