<svg width="215" height="29" viewBox="0 0 215 29" fill="none" xmlns="http://www.w3.org/2000/svg">
<path d="M0.647727 9.36364L0.647727 5.54545L15.8182 5.54545V9.36364H10.5682L10.5682 23H5.89773V9.36364H0.647727ZM19.5362 23.2045C18.701 23.2045 17.9624 23.0682 17.3203 22.7955C16.6839 22.517 16.1839 22.0966 15.8203 21.5341C15.4567 20.9716 15.2749 20.2557 15.2749 19.3864C15.2749 18.6705 15.397 18.0597 15.6413 17.554C15.8857 17.0426 16.2266 16.625 16.6641 16.3011C17.1016 15.9773 17.6101 15.7301 18.1896 15.5597C18.7749 15.3892 19.4055 15.2784 20.0817 15.2273C20.8146 15.1705 21.4027 15.1023 21.8459 15.0227C22.2947 14.9375 22.6186 14.821 22.8175 14.6733C23.0163 14.5199 23.1158 14.3182 23.1158 14.0682V14.0341C23.1158 13.6932 22.9851 13.4318 22.7237 13.25C22.4624 13.0682 22.1271 12.9773 21.718 12.9773C21.2692 12.9773 20.9027 13.0767 20.6186 13.2756C20.3402 13.4687 20.1726 13.767 20.1158 14.1705L15.7862 14.1705C15.843 13.375 16.0959 12.642 16.5447 11.9716C16.9993 11.2955 17.6612 10.7557 18.5305 10.3523C19.3999 9.94318 20.4851 9.73864 21.7862 9.73864C22.7237 9.73864 23.5646 9.84943 24.3089 10.071C25.0533 10.2869 25.6868 10.5909 26.2095 10.983C26.7322 11.3693 27.13 11.8239 27.4027 12.3466C27.6811 12.8636 27.8203 13.4261 27.8203 14.0341V23H23.4226V21.1591H23.3203C23.0589 21.6477 22.7408 22.0426 22.3658 22.3438C21.9964 22.6449 21.5732 22.8636 21.0959 23C20.6243 23.1364 20.1044 23.2045 19.5362 23.2045ZM21.0703 20.2386C21.4283 20.2386 21.7635 20.1648 22.076 20.017C22.3942 19.8693 22.6527 19.6562 22.8516 19.3778C23.0504 19.0994 23.1499 18.7614 23.1499 18.3636V17.2727C23.0249 17.3239 22.8913 17.3722 22.7493 17.4176C22.6129 17.4631 22.4652 17.5057 22.3061 17.5455C22.1527 17.5852 21.9879 17.6222 21.8118 17.6562C21.6413 17.6903 21.4624 17.7216 21.2749 17.75C20.9112 17.8068 20.6129 17.9006 20.38 18.0312C20.1527 18.1562 19.9822 18.3125 19.8686 18.5C19.7607 18.6818 19.7067 18.8864 19.7067 19.1136C19.7067 19.4773 19.8345 19.7557 20.0902 19.9489C20.3459 20.142 20.6726 20.2386 21.0703 20.2386ZM30.0682 27.9091V9.90909H34.7386V12.1932H34.8409C35.0114 11.75 35.2614 11.3437 35.5909 10.9744C35.9205 10.5994 36.3295 10.3011 36.8182 10.0795C37.3068 9.85227 37.875 9.73864 38.5227 9.73864C39.3864 9.73864 40.2074 9.96875 40.9858 10.429C41.7699 10.8892 42.4063 11.6136 42.8949 12.6023C43.3892 13.5909 43.6364 14.875 43.6364 16.4545C43.6364 17.9659 43.4006 19.2187 42.929 20.2131C42.4631 21.2074 41.8381 21.9489 41.054 22.4375C40.2756 22.9261 39.4205 23.1705 38.4886 23.1705C37.875 23.1705 37.3267 23.071 36.8438 22.8722C36.3665 22.6676 35.9574 22.392 35.6165 22.0455C35.2813 21.6932 35.0227 21.2955 34.8409 20.8523H34.7727V27.9091L30.0682 27.9091ZM34.6705 16.4545C34.6705 17.0909 34.7528 17.642 34.9176 18.108C35.0881 18.5682 35.3267 18.9261 35.6335 19.1818C35.946 19.4318 36.3182 19.5568 36.75 19.5568C37.1818 19.5568 37.5483 19.4347 37.8494 19.1903C38.1563 18.9403 38.3892 18.5852 38.5483 18.125C38.7131 17.6591 38.7955 17.1023 38.7955 16.4545C38.7955 15.8068 38.7131 15.2528 38.5483 14.7926C38.3892 14.3267 38.1563 13.9716 37.8494 13.7273C37.5483 13.4773 37.1818 13.3523 36.75 13.3523C36.3182 13.3523 35.946 13.4773 35.6335 13.7273C35.3267 13.9716 35.0881 14.3267 34.9176 14.7926C34.7528 15.2528 34.6705 15.8068 34.6705 16.4545ZM58.1953 9.90909V13.3182H49.5703V9.90909H58.1953ZM51.2408 6.77273H55.9453V18.7898C55.9453 18.9716 55.9766 19.125 56.0391 19.25C56.1016 19.3693 56.1982 19.4602 56.3288 19.5227C56.4595 19.5795 56.6271 19.608 56.8317 19.608C56.9737 19.608 57.1385 19.5909 57.326 19.5568C57.5192 19.5227 57.6612 19.4943 57.7521 19.4716L58.4339 22.7784C58.2237 22.8409 57.9226 22.9176 57.5305 23.0085C57.1442 23.0994 56.6839 23.1591 56.1499 23.1875C55.0703 23.2443 54.1641 23.1335 53.4311 22.8551C52.6982 22.571 52.147 22.125 51.7777 21.517C51.4084 20.9091 51.2294 20.1477 51.2408 19.233V6.77273ZM66.2812 23.2386C64.8608 23.2386 63.6449 22.9574 62.6335 22.3949C61.6222 21.8267 60.8466 21.0369 60.3068 20.0256C59.767 19.0085 59.4972 17.8295 59.4972 16.4886C59.4972 15.1477 59.767 13.9716 60.3068 12.9602C60.8466 11.9432 61.6222 11.1534 62.6335 10.5909C63.6449 10.0227 64.8608 9.73864 66.2812 9.73864C67.7017 9.73864 68.9176 10.0227 69.929 10.5909C70.9403 11.1534 71.7159 11.9432 72.2557 12.9602C72.7955 13.9716 73.0653 15.1477 73.0653 16.4886C73.0653 17.8295 72.7955 19.0085 72.2557 20.0256C71.7159 21.0369 70.9403 21.8267 69.929 22.3949C68.9176 22.9574 67.7017 23.2386 66.2812 23.2386ZM66.3153 19.7614C66.7131 19.7614 67.0568 19.6278 67.3466 19.3608C67.6364 19.0937 67.8608 18.7131 68.0199 18.2187C68.179 17.7244 68.2585 17.1364 68.2585 16.4545C68.2585 15.767 68.179 15.179 68.0199 14.6903C67.8608 14.196 67.6364 13.8153 67.3466 13.5483C67.0568 13.2812 66.7131 13.1477 66.3153 13.1477C65.8949 13.1477 65.5341 13.2812 65.233 13.5483C64.9318 13.8153 64.7017 14.196 64.5426 14.6903C64.3835 15.179 64.304 15.767 64.304 16.4545C64.304 17.1364 64.3835 17.7244 64.5426 18.2187C64.7017 18.7131 64.9318 19.0937 65.233 19.3608C65.5341 19.6278 65.8949 19.7614 66.3153 19.7614ZM91.7216 14.1705H87.392C87.3693 13.9034 87.2756 13.6733 87.1108 13.4801C86.946 13.2869 86.733 13.1392 86.4716 13.0369C86.2159 12.929 85.9318 12.875 85.6193 12.875C85.2159 12.875 84.8693 12.9489 84.5795 13.0966C84.2898 13.2443 84.1477 13.4545 84.1534 13.7273C84.1477 13.9205 84.2301 14.0994 84.4006 14.2642C84.5767 14.429 84.9148 14.5568 85.4148 14.6477L88.0739 15.125C89.4148 15.3693 90.4119 15.7812 91.0653 16.3608C91.7244 16.9347 92.0568 17.7045 92.0625 18.6705C92.0568 19.6023 91.7784 20.4119 91.2273 21.0994C90.6818 21.7812 89.9347 22.3097 88.9858 22.6847C88.0426 23.054 86.9659 23.2386 85.7557 23.2386C83.7557 23.2386 82.1903 22.8295 81.0597 22.0114C79.9347 21.1932 79.3068 20.1136 79.1761 18.7727H83.8466C83.9091 19.1875 84.1136 19.5085 84.4602 19.7358C84.8125 19.9574 85.2557 20.0682 85.7898 20.0682C86.2216 20.0682 86.5767 19.9943 86.8551 19.8466C87.1392 19.6989 87.2841 19.4886 87.2898 19.2159C87.2841 18.9659 87.1591 18.767 86.9148 18.6193C86.6761 18.4716 86.3011 18.3523 85.7898 18.2614L83.4716 17.8523C82.1364 17.6193 81.1364 17.1761 80.4716 16.5227C79.8068 15.8693 79.4773 15.0284 79.483 14C79.4773 13.0909 79.7159 12.321 80.1989 11.6903C80.6875 11.054 81.3835 10.571 82.2869 10.2415C83.196 9.90625 84.2727 9.73864 85.517 9.73864C87.4091 9.73864 88.9006 10.1307 89.9915 10.9148C91.0881 11.6989 91.6648 12.7841 91.7216 14.1705ZM101.672 9.90909V13.3182H93.0469V9.90909H101.672ZM94.7173 6.77273H99.4219V18.7898C99.4219 18.9716 99.4531 19.125 99.5156 19.25C99.5781 19.3693 99.6747 19.4602 99.8054 19.5227C99.9361 19.5795 100.104 19.608 100.308 19.608C100.45 19.608 100.615 19.5909 100.803 19.5568C100.996 19.5227 101.138 19.4943 101.229 19.4716L101.911 22.7784C101.7 22.8409 101.399 22.9176 101.007 23.0085C100.621 23.0994 100.161 23.1591 99.6264 23.1875C98.5469 23.2443 97.6406 23.1335 96.9077 22.8551C96.1747 22.571 95.6236 22.125 95.2543 21.517C94.8849 20.9091 94.706 20.1477 94.7173 19.233V6.77273ZM107.239 23.2045C106.404 23.2045 105.665 23.0682 105.023 22.7955C104.387 22.517 103.887 22.0966 103.523 21.5341C103.16 20.9716 102.978 20.2557 102.978 19.3864C102.978 18.6705 103.1 18.0597 103.344 17.554C103.589 17.0426 103.93 16.625 104.367 16.3011C104.805 15.9773 105.313 15.7301 105.893 15.5597C106.478 15.3892 107.109 15.2784 107.785 15.2273C108.518 15.1705 109.106 15.1023 109.549 15.0227C109.998 14.9375 110.322 14.821 110.521 14.6733C110.719 14.5199 110.819 14.3182 110.819 14.0682V14.0341C110.819 13.6932 110.688 13.4318 110.427 13.25C110.165 13.0682 109.83 12.9773 109.421 12.9773C108.972 12.9773 108.606 13.0767 108.322 13.2756C108.043 13.4687 107.876 13.767 107.819 14.1705H103.489C103.546 13.375 103.799 12.642 104.248 11.9716C104.702 11.2955 105.364 10.7557 106.234 10.3523C107.103 9.94318 108.188 9.73864 109.489 9.73864C110.427 9.73864 111.268 9.84943 112.012 10.071C112.756 10.2869 113.39 10.5909 113.913 10.983C114.435 11.3693 114.833 11.8239 115.106 12.3466C115.384 12.8636 115.523 13.4261 115.523 14.0341V23H111.126V21.1591H111.023C110.762 21.6477 110.444 22.0426 110.069 22.3437C109.7 22.6449 109.276 22.8636 108.799 23C108.327 23.1364 107.808 23.2045 107.239 23.2045ZM108.773 20.2386C109.131 20.2386 109.467 20.1648 109.779 20.017C110.097 19.8693 110.356 19.6562 110.555 19.3778C110.754 19.0994 110.853 18.7614 110.853 18.3636V17.2727C110.728 17.3239 110.594 17.3722 110.452 17.4176C110.316 17.4631 110.168 17.5057 110.009 17.5455C109.856 17.5852 109.691 17.6222 109.515 17.6562C109.344 17.6903 109.165 17.7216 108.978 17.75C108.614 17.8068 108.316 17.9006 108.083 18.0312C107.856 18.1562 107.685 18.3125 107.572 18.5C107.464 18.6818 107.41 18.8864 107.41 19.1136C107.41 19.4773 107.538 19.7557 107.793 19.9489C108.049 20.142 108.376 20.2386 108.773 20.2386ZM117.771 23V9.90909H122.339V12.3977H122.476C122.714 11.4773 123.092 10.804 123.609 10.3778C124.132 9.9517 124.743 9.73864 125.442 9.73864C125.646 9.73864 125.848 9.75568 126.047 9.78977C126.251 9.81818 126.447 9.8608 126.635 9.91761V13.9318C126.402 13.8523 126.115 13.7926 125.774 13.7528C125.433 13.7131 125.141 13.6932 124.896 13.6932C124.436 13.6932 124.021 13.7983 123.652 14.0085C123.288 14.2131 123.001 14.5028 122.791 14.8778C122.581 15.2472 122.476 15.6818 122.476 16.1818V23H117.771ZM136.523 9.90909V13.3182H127.898V9.90909H136.523ZM129.569 6.77273H134.273V18.7898C134.273 18.9716 134.305 19.125 134.367 19.25C134.43 19.3693 134.526 19.4602 134.657 19.5227C134.788 19.5795 134.955 19.608 135.16 19.608C135.302 19.608 135.467 19.5909 135.654 19.5568C135.847 19.5227 135.989 19.4943 136.08 19.4716L136.762 22.7784C136.552 22.8409 136.251 22.9176 135.859 23.0085C135.472 23.0994 135.012 23.1591 134.478 23.1875C133.398 23.2443 132.492 23.1335 131.759 22.8551C131.026 22.571 130.475 22.125 130.106 21.517C129.737 20.9091 129.558 20.1477 129.569 19.233V6.77273ZM149.531 28.1818C148.219 28.1818 147.094 27.9943 146.156 27.6193C145.224 27.25 144.5 26.7386 143.983 26.0852C143.472 25.4375 143.185 24.6932 143.122 23.8523H147.656C147.702 24.1307 147.815 24.3551 147.997 24.5256C148.179 24.696 148.412 24.8182 148.696 24.892C148.986 24.9716 149.31 25.0114 149.668 25.0114C150.276 25.0114 150.778 24.8636 151.176 24.5682C151.58 24.2727 151.781 23.7386 151.781 22.9659V20.75H151.645C151.474 21.1932 151.213 21.571 150.861 21.8835C150.509 22.1903 150.085 22.4261 149.591 22.5909C149.097 22.75 148.554 22.8295 147.963 22.8295C147.031 22.8295 146.173 22.6136 145.389 22.1818C144.611 21.75 143.986 21.0653 143.514 20.1278C143.048 19.1903 142.815 17.9659 142.815 16.4545C142.815 14.875 143.06 13.5909 143.548 12.6023C144.043 11.6136 144.679 10.8892 145.457 10.429C146.241 9.96875 147.065 9.73864 147.929 9.73864C148.577 9.73864 149.145 9.85227 149.634 10.0795C150.122 10.3011 150.531 10.5994 150.861 10.9744C151.19 11.3437 151.44 11.75 151.611 12.1932H151.713V9.90909H156.418V22.9659C156.418 24.0739 156.131 25.0142 155.557 25.7869C154.989 26.5653 154.188 27.1591 153.153 27.5682C152.119 27.9773 150.912 28.1818 149.531 28.1818ZM149.702 19.4886C150.134 19.4886 150.503 19.3693 150.81 19.1307C151.122 18.8864 151.361 18.5398 151.526 18.0909C151.696 17.6364 151.781 17.0909 151.781 16.4545C151.781 15.8068 151.696 15.2528 151.526 14.7926C151.361 14.3267 151.122 13.9716 150.81 13.7273C150.503 13.4773 150.134 13.3523 149.702 13.3523C149.27 13.3523 148.901 13.4773 148.594 13.7273C148.293 13.9716 148.06 14.3267 147.895 14.7926C147.736 15.2528 147.656 15.8068 147.656 16.4545C147.656 17.1023 147.736 17.6534 147.895 18.108C148.06 18.5568 148.293 18.9006 148.594 19.1392C148.901 19.3722 149.27 19.4886 149.702 19.4886ZM162.458 23.2045C161.623 23.2045 160.884 23.0682 160.242 22.7955C159.606 22.517 159.106 22.0966 158.742 21.5341C158.379 20.9716 158.197 20.2557 158.197 19.3864C158.197 18.6705 158.319 18.0597 158.563 17.554C158.808 17.0426 159.148 16.625 159.586 16.3011C160.023 15.9773 160.532 15.7301 161.112 15.5597C161.697 15.3892 162.327 15.2784 163.004 15.2273C163.737 15.1705 164.325 15.1023 164.768 15.0227C165.217 14.9375 165.54 14.821 165.739 14.6733C165.938 14.5199 166.038 14.3182 166.038 14.0682V14.0341C166.038 13.6932 165.907 13.4318 165.646 13.25C165.384 13.0682 165.049 12.9773 164.64 12.9773C164.191 12.9773 163.825 13.0767 163.54 13.2756C163.262 13.4687 163.094 13.767 163.038 14.1705H158.708C158.765 13.375 159.018 12.642 159.467 11.9716C159.921 11.2955 160.583 10.7557 161.452 10.3523C162.322 9.94318 163.407 9.73864 164.708 9.73864C165.646 9.73864 166.487 9.84943 167.231 10.071C167.975 10.2869 168.609 10.5909 169.131 10.983C169.654 11.3693 170.052 11.8239 170.325 12.3466C170.603 12.8636 170.742 13.4261 170.742 14.0341V23H166.344V21.1591H166.242C165.981 21.6477 165.663 22.0426 165.288 22.3437C164.918 22.6449 164.495 22.8636 164.018 23C163.546 23.1364 163.026 23.2045 162.458 23.2045ZM163.992 20.2386C164.35 20.2386 164.685 20.1648 164.998 20.017C165.316 19.8693 165.575 19.6562 165.773 19.3778C165.972 19.0994 166.072 18.7614 166.072 18.3636V17.2727C165.947 17.3239 165.813 17.3722 165.671 17.4176C165.535 17.4631 165.387 17.5057 165.228 17.5455C165.075 17.5852 164.91 17.6222 164.734 17.6562C164.563 17.6903 164.384 17.7216 164.197 17.75C163.833 17.8068 163.535 17.9006 163.302 18.0312C163.075 18.1562 162.904 18.3125 162.79 18.5C162.683 18.6818 162.629 18.8864 162.629 19.1136C162.629 19.4773 162.756 19.7557 163.012 19.9489C163.268 20.142 163.594 20.2386 163.992 20.2386ZM172.99 23V9.90909L177.456 9.90909V12.3977H177.592C177.865 11.5795 178.331 10.9318 178.99 10.4545C179.649 9.97727 180.433 9.73864 181.342 9.73864C182.263 9.73864 183.055 9.98295 183.72 10.4716C184.385 10.9545 184.786 11.5966 184.922 12.3977H185.058C185.28 11.5966 185.751 10.9545 186.473 10.4716C187.195 9.98295 188.041 9.73864 189.013 9.73864C190.268 9.73864 191.286 10.142 192.064 10.9489C192.848 11.7557 193.24 12.8295 193.24 14.1705V23H188.536V15.3636C188.536 14.7898 188.391 14.3409 188.101 14.017C187.811 13.6875 187.422 13.5227 186.933 13.5227C186.45 13.5227 186.067 13.6875 185.783 14.017C185.504 14.3409 185.365 14.7898 185.365 15.3636V23H180.865V15.3636C180.865 14.7898 180.72 14.3409 180.43 14.017C180.141 13.6875 179.751 13.5227 179.263 13.5227C178.939 13.5227 178.661 13.5966 178.428 13.7443C178.195 13.892 178.013 14.1051 177.882 14.3835C177.757 14.6562 177.695 14.983 177.695 15.3636V23H172.99ZM201.833 23.2386C200.435 23.2386 199.231 22.9716 198.219 22.4375C197.214 21.8977 196.438 21.125 195.893 20.1193C195.353 19.108 195.083 17.8977 195.083 16.4886C195.083 15.1364 195.356 13.9545 195.901 12.9432C196.447 11.9318 197.217 11.1449 198.211 10.5824C199.205 10.0199 200.379 9.73864 201.731 9.73864C202.719 9.73864 203.614 9.89205 204.415 10.1989C205.217 10.5057 205.901 10.9517 206.469 11.5369C207.038 12.1165 207.475 12.821 207.782 13.6506C208.089 14.4801 208.242 15.4148 208.242 16.4545V17.5455H196.549V14.9545H203.913C203.907 14.5795 203.81 14.25 203.623 13.9659C203.441 13.6761 203.194 13.4517 202.881 13.2926C202.575 13.1278 202.225 13.0455 201.833 13.0455C201.452 13.0455 201.103 13.1278 200.785 13.2926C200.467 13.4517 200.211 13.6733 200.018 13.9574C199.83 14.2415 199.731 14.5739 199.719 14.9545V17.75C199.719 18.1705 199.808 18.5455 199.984 18.875C200.16 19.2045 200.413 19.4631 200.742 19.6506C201.072 19.8381 201.469 19.9318 201.935 19.9318C202.259 19.9318 202.555 19.8864 202.822 19.7955C203.094 19.7045 203.327 19.5739 203.521 19.4034C203.714 19.2273 203.856 19.017 203.947 18.7727H208.242C208.094 19.6818 207.745 20.4716 207.194 21.142C206.643 21.8068 205.913 22.3239 205.004 22.6932C204.1 23.0568 203.043 23.2386 201.833 23.2386Z" fill="white"/>
<path d="M0.647727 9.36364H-2.35227L-2.35227 12.3636H0.647727L0.647727 9.36364ZM0.647727 5.54545L0.647727 2.54545H-2.35227L-2.35227 5.54545H0.647727ZM15.8182 5.54545H18.8182V2.54545H15.8182V5.54545ZM15.8182 9.36364V12.3636L18.8182 12.3636V9.36364L15.8182 9.36364ZM10.5682 9.36364V6.36364L7.56818 6.36364L7.56818 9.36364H10.5682ZM10.5682 23V26H13.5682V23H10.5682ZM5.89773 23H2.89773V26H5.89773L5.89773 23ZM5.89773 9.36364H8.89773V6.36364L5.89773 6.36364L5.89773 9.36364ZM3.64773 9.36364V5.54545H-2.35227V9.36364H3.64773ZM0.647727 8.54545H15.8182V2.54545L0.647727 2.54545L0.647727 8.54545ZM12.8182 5.54545V9.36364L18.8182 9.36364V5.54545H12.8182ZM15.8182 6.36364H10.5682V12.3636H15.8182V6.36364ZM7.56818 9.36364V23H13.5682L13.5682 9.36364H7.56818ZM10.5682 20H5.89773L5.89773 26H10.5682V20ZM8.89773 23L8.89773 9.36364H2.89773L2.89773 23H8.89773ZM5.89773 6.36364H0.647727L0.647727 12.3636H5.89773L5.89773 6.36364ZM17.3203 22.7955L16.1179 25.5439L16.1326 25.5504L16.1474 25.5567L17.3203 22.7955ZM15.8203 21.5341L13.3009 23.1628V23.1628L15.8203 21.5341ZM15.6413 17.554L18.3426 18.8591L18.3482 18.8473L15.6413 17.554ZM16.6641 16.3011L18.449 18.7124H18.449L16.6641 16.3011ZM18.1896 15.5597L17.3507 12.6793L17.3431 12.6816L18.1896 15.5597ZM20.0817 15.2273L20.3079 18.2187L20.3135 18.2183L20.0817 15.2273ZM21.8459 15.0227L22.3759 17.9755L22.3907 17.9729L22.4055 17.9701L21.8459 15.0227ZM22.8175 14.6733L24.6064 17.0815L24.6283 17.0653L24.6499 17.0486L22.8175 14.6733ZM22.7237 13.25L21.0105 15.7127V15.7127L22.7237 13.25ZM20.6186 13.2756L22.3289 15.7404L22.339 15.7333L20.6186 13.2756ZM20.1158 14.1705V17.1705H22.7228L23.0864 14.5889L20.1158 14.1705ZM15.7862 14.1705L12.7938 13.9567L12.5643 17.1705H15.7862L15.7862 14.1705ZM16.5447 11.9716L14.055 10.2978L14.0518 10.3026L16.5447 11.9716ZM18.5305 10.3523L19.7934 13.0735L19.8006 13.0702L19.8079 13.0667L18.5305 10.3523ZM24.3089 10.071L23.4529 12.9463L23.4631 12.9493L23.4732 12.9523L24.3089 10.071ZM26.2095 10.983L24.4095 13.383L24.4179 13.3892L24.4263 13.3955L26.2095 10.983ZM27.4027 12.3466L24.7429 13.7343L24.752 13.7516L24.7613 13.7689L27.4027 12.3466ZM27.8203 23V26H30.8203V23H27.8203ZM23.4226 23H20.4226V26H23.4226V23ZM23.4226 21.1591H26.4226V18.1591H23.4226V21.1591ZM23.3203 21.1591V18.1591H21.5228L20.675 19.7441L23.3203 21.1591ZM22.3658 22.3438L20.4874 20.0046L20.4786 20.0116L20.47 20.0187L22.3658 22.3438ZM21.0959 23L20.2717 20.1154L20.2625 20.1181L21.0959 23ZM22.076 20.017L20.8127 17.296L20.8032 17.3004L20.7939 17.3048L22.076 20.017ZM22.8516 19.3778L20.4104 17.6341V17.6341L22.8516 19.3778ZM23.1499 17.2727H26.1499V12.8041L22.014 14.4961L23.1499 17.2727ZM22.7493 17.4176L21.835 14.5603L21.8178 14.5658L21.8006 14.5716L22.7493 17.4176ZM22.3061 17.5455L21.5785 14.635L21.5658 14.6382L21.5532 14.6415L22.3061 17.5455ZM21.8118 17.6562L21.2417 14.7109L21.2326 14.7127L21.2234 14.7145L21.8118 17.6562ZM21.2749 17.75L20.8254 14.7838L20.8117 14.786L21.2749 17.75ZM20.38 18.0312L21.8257 20.6599L21.8368 20.6538L21.8477 20.6477L20.38 18.0312ZM19.8686 18.5L17.303 16.9451L17.296 16.9567L17.289 16.9684L19.8686 18.5ZM20.0902 19.9489L21.8987 17.5553L20.0902 19.9489ZM19.5362 20.2045C19.0261 20.2045 18.6987 20.1215 18.4932 20.0342L16.1474 25.5567C17.226 26.0148 18.3759 26.2045 19.5362 26.2045V20.2045ZM18.5228 20.047C18.4046 19.9953 18.3715 19.9545 18.3397 19.9054L13.3009 23.1628C13.9964 24.2387 14.9633 25.0388 16.1179 25.5439L18.5228 20.047ZM18.3397 19.9054C18.3707 19.9534 18.2749 19.8476 18.2749 19.3864H12.2749C12.2749 20.6638 12.5426 21.9898 13.3009 23.1628L18.3397 19.9054ZM18.2749 19.3864C18.2749 19.0022 18.3412 18.8618 18.3426 18.8591L12.9401 16.2489C12.4528 17.2575 12.2749 18.3387 12.2749 19.3864H18.2749ZM18.3482 18.8473C18.3902 18.7594 18.422 18.7323 18.449 18.7124L14.8791 13.8899C14.0311 14.5177 13.3811 15.3258 12.9344 16.2607L18.3482 18.8473ZM18.449 18.7124C18.5741 18.6197 18.7575 18.5197 19.0361 18.4378L17.3431 12.6816C16.4627 12.9405 15.629 13.3348 14.8791 13.8899L18.449 18.7124ZM19.0286 18.44C19.3931 18.3338 19.8165 18.2559 20.3079 18.2187L19.8554 12.2358C18.9946 12.3009 18.1566 12.4446 17.3507 12.6793L19.0286 18.44ZM20.3135 18.2183C21.0925 18.1579 21.7922 18.0803 22.3759 17.9755L21.3159 12.0699C21.0132 12.1242 20.5367 12.183 19.8498 12.2362L20.3135 18.2183ZM22.4055 17.9701C22.9849 17.8601 23.853 17.6412 24.6064 17.0815L21.0285 12.2651C21.1382 12.1836 21.231 12.1314 21.2916 12.1008C21.3528 12.0698 21.395 12.0539 21.4101 12.0485C21.4356 12.0393 21.4026 12.0533 21.2863 12.0754L22.4055 17.9701ZM24.6499 17.0486C25.581 16.3303 26.1158 15.2532 26.1158 14.0682H20.1158C20.1158 13.7851 20.1749 13.4365 20.3504 13.0805C20.5256 12.725 20.7649 12.4678 20.9851 12.2979L24.6499 17.0486ZM26.1158 14.0682V14.0341H20.1158V14.0682H26.1158ZM26.1158 14.0341C26.1158 12.7931 25.5694 11.5751 24.4369 10.7873L21.0105 15.7127C20.767 15.5433 20.5134 15.2818 20.3345 14.924C20.1594 14.574 20.1158 14.2519 20.1158 14.0341H26.1158ZM24.4369 10.7873C23.5466 10.168 22.5656 9.97727 21.718 9.97727V15.9773C21.6886 15.9773 21.3781 15.9684 21.0105 15.7127L24.4369 10.7873ZM21.718 9.97727C20.834 9.97727 19.8165 10.1751 18.8982 10.8179L22.339 15.7333C21.9889 15.9783 21.7043 15.9773 21.718 15.9773V9.97727ZM18.9084 10.8108C17.8057 11.5759 17.293 12.702 17.1451 13.752L23.0864 14.5889C23.0725 14.6877 23.0297 14.8821 22.8995 15.1138C22.763 15.3566 22.5665 15.5754 22.3289 15.7403L18.9084 10.8108ZM20.1158 11.1705L15.7862 11.1705L15.7862 17.1705H20.1158V11.1705ZM18.7786 14.3842C18.7978 14.1154 18.8754 13.8829 19.0376 13.6406L14.0518 10.3026C13.3164 11.4011 12.8883 12.6346 12.7938 13.9567L18.7786 14.3842ZM19.0344 13.6453C19.1331 13.4986 19.3323 13.2875 19.7934 13.0735L17.2677 7.631C15.9901 8.22389 14.8655 9.0923 14.055 10.2978L19.0344 13.6453ZM19.8079 13.0667C20.1624 12.8999 20.7786 12.7386 21.7862 12.7386V6.73864C20.1916 6.73864 18.6374 6.98642 17.2531 7.63782L19.8079 13.0667ZM21.7862 12.7386C22.4917 12.7386 23.0369 12.8225 23.4529 12.9463L25.1649 7.19574C24.0923 6.87641 22.9557 6.73864 21.7862 6.73864V12.7386ZM23.4732 12.9523C23.9329 13.0856 24.2249 13.2445 24.4095 13.383L28.0095 8.58295C27.1487 7.93732 26.1736 7.48825 25.1447 7.18979L23.4732 12.9523ZM24.4263 13.3955C24.6209 13.5393 24.7017 13.6552 24.7429 13.7343L30.0625 10.9589C29.5583 9.99254 28.8436 9.19935 27.9927 8.57043L24.4263 13.3955ZM24.7613 13.7689C24.7958 13.8331 24.8203 13.9044 24.8203 14.0341H30.8203C30.8203 12.9479 30.5664 11.8942 30.0441 10.9243L24.7613 13.7689ZM24.8203 14.0341V23H30.8203V14.0341H24.8203ZM27.8203 20H23.4226V26H27.8203V20ZM26.4226 23V21.1591H20.4226V23H26.4226ZM23.4226 18.1591H23.3203V24.1591H23.4226V18.1591ZM20.675 19.7441C20.5755 19.93 20.5027 19.9923 20.4874 20.0046L24.2442 24.6829C24.9789 24.0929 25.5424 23.3654 25.9657 22.574L20.675 19.7441ZM20.47 20.0187C20.4293 20.0518 20.3741 20.0862 20.2717 20.1154L21.92 25.8846C22.7722 25.6411 23.5636 25.238 24.2616 24.6688L20.47 20.0187ZM20.2625 20.1181C20.1005 20.1649 19.8657 20.2045 19.5362 20.2045V26.2045C20.3431 26.2045 21.1481 26.1078 21.9292 25.8819L20.2625 20.1181ZM21.0703 23.2386C21.8554 23.2386 22.6304 23.0733 23.3581 22.7293L20.7939 17.3048C20.8396 17.2832 20.8911 17.2653 20.9447 17.2535C20.9979 17.2418 21.0415 17.2386 21.0703 17.2386V23.2386ZM23.3393 22.7381C24.1156 22.3777 24.7845 21.8331 25.2928 21.1216L20.4104 17.6341C20.4597 17.565 20.5236 17.4948 20.6005 17.4314C20.6771 17.3683 20.7514 17.3245 20.8127 17.296L23.3393 22.7381ZM25.2928 21.1216C25.9116 20.2552 26.1499 19.2817 26.1499 18.3636H20.1499C20.1499 18.3122 20.1564 18.2076 20.1972 18.069C20.2391 17.9264 20.3093 17.7757 20.4104 17.6341L25.2928 21.1216ZM26.1499 18.3636V17.2727H20.1499V18.3636H26.1499ZM22.014 14.4961C21.9688 14.5146 21.9097 14.5364 21.835 14.5603L23.6636 20.2749C23.8729 20.2079 24.0809 20.1332 24.2858 20.0494L22.014 14.4961ZM21.8006 14.5716C21.7464 14.5896 21.6732 14.6113 21.5785 14.635L23.0337 20.4559C23.2572 20.4 23.4795 20.3365 23.698 20.2637L21.8006 14.5716ZM21.5532 14.6415C21.4676 14.6637 21.3643 14.6872 21.2417 14.7109L22.3819 20.6016C22.6115 20.5571 22.8378 20.5068 23.059 20.4494L21.5532 14.6415ZM21.2234 14.7145C21.103 14.7386 20.9706 14.7619 20.8254 14.7839L21.7243 20.7161C21.9541 20.6813 22.1796 20.6421 22.4001 20.598L21.2234 14.7145ZM20.8117 14.786C20.2192 14.8786 19.55 15.057 18.9122 15.4148L21.8477 20.6477C21.7563 20.699 21.6936 20.72 21.6779 20.7249C21.662 20.7299 21.6788 20.7233 21.738 20.714L20.8117 14.786ZM18.9342 15.4026C18.3308 15.7345 17.7355 16.2316 17.303 16.9451L22.4342 20.0549C22.229 20.3934 21.9746 20.578 21.8257 20.6599L18.9342 15.4026ZM17.289 16.9684C16.8853 17.6484 16.7067 18.3891 16.7067 19.1136H22.7067C22.7067 19.3836 22.636 19.7153 22.4482 20.0316L17.289 16.9684ZM16.7067 19.1136C16.7067 20.2731 17.1672 21.5004 18.2817 22.3425L21.8987 17.5553C22.1476 17.7433 22.3763 18.0109 22.5289 18.3433C22.6758 18.6634 22.7067 18.9431 22.7067 19.1136H16.7067ZM18.2817 22.3425C19.173 23.0159 20.1801 23.2386 21.0703 23.2386V17.2386C21.1651 17.2386 21.5187 17.2682 21.8987 17.5553L18.2817 22.3425ZM30.0682 27.9091H27.0682V30.9091H30.0682V27.9091ZM30.0682 9.90909V6.90909H27.0682V9.90909H30.0682ZM34.7386 9.90909H37.7386V6.90909H34.7386V9.90909ZM34.7386 12.1932H31.7386V15.1932H34.7386V12.1932ZM34.8409 12.1932V15.1932H36.9013L37.6409 13.2701L34.8409 12.1932ZM35.5909 10.9744L37.8293 12.9718L37.8369 12.9633L37.8444 12.9548L35.5909 10.9744ZM36.8182 10.0795L38.0572 12.8117L38.0703 12.8058L38.0834 12.7997L36.8182 10.0795ZM40.9858 10.429L39.459 13.0114L39.4672 13.0162L40.9858 10.429ZM42.8949 12.6023L40.2054 13.9315L40.2116 13.9439L42.8949 12.6023ZM42.929 20.2131L40.2184 18.9275L40.2124 18.9402L42.929 20.2131ZM41.054 22.4375L39.4673 19.8914L39.459 19.8966L41.054 22.4375ZM36.8438 22.8722L35.662 25.6296L35.6817 25.638L35.7015 25.6462L36.8438 22.8722ZM35.6165 22.0455L33.4432 24.1135L33.4603 24.1315L33.4777 24.1492L35.6165 22.0455ZM34.8409 20.8523L37.6164 19.7136L36.8528 17.8523H34.8409V20.8523ZM34.7727 20.8523V17.8523L31.7727 17.8523V20.8523L34.7727 20.8523ZM34.7727 27.9091V30.9091H37.7727V27.9091H34.7727ZM34.9176 18.108L32.0893 19.1082L32.0967 19.1291L32.1044 19.1499L34.9176 18.108ZM35.6335 19.1818L33.713 21.4865L33.736 21.5057L33.7594 21.5244L35.6335 19.1818ZM37.8494 19.1903L39.7396 21.52L39.7444 21.516L37.8494 19.1903ZM38.5483 18.125L35.72 17.1247L35.7164 17.1348L35.7129 17.1449L38.5483 18.125ZM38.5483 14.7926L35.7092 15.762L35.7164 15.783L35.7239 15.8038L38.5483 14.7926ZM37.8494 13.7273L35.9332 16.0355L35.9567 16.055L35.9807 16.0741L37.8494 13.7273ZM35.6335 13.7273L37.5023 16.0741L37.5076 16.0699L35.6335 13.7273ZM34.9176 14.7926L32.1002 13.7619L32.0967 13.7716L32.0932 13.7814L34.9176 14.7926ZM33.0682 27.9091V9.90909H27.0682V27.9091L33.0682 27.9091ZM30.0682 12.9091H34.7386V6.90909H30.0682V12.9091ZM31.7386 9.90909V12.1932H37.7386V9.90909H31.7386ZM34.7386 15.1932H34.8409V9.19318H34.7386V15.1932ZM37.6409 13.2701C37.6758 13.1794 37.7307 13.0824 37.8293 12.9718L33.3525 8.97707C32.7921 9.60513 32.3469 10.3206 32.0409 11.1162L37.6409 13.2701ZM37.8444 12.9548C37.8724 12.9229 37.9268 12.8709 38.0572 12.8117L35.5792 7.34736C34.7323 7.73141 33.9685 8.27594 33.3374 8.99409L37.8444 12.9548ZM38.0834 12.7997C38.1038 12.7902 38.2252 12.7386 38.5227 12.7386V6.73864C37.5248 6.73864 36.5098 6.91435 35.553 7.35938L38.0834 12.7997ZM38.5227 12.7386C38.8234 12.7386 39.1202 12.8111 39.459 13.0114L42.5126 7.84657C41.2945 7.12639 39.9493 6.73864 38.5227 6.73864V12.7386ZM39.4672 13.0162C39.6481 13.1224 39.9203 13.3546 40.2055 13.9315L45.5843 11.273C44.8922 9.87265 43.8917 8.65599 42.5044 7.84173L39.4672 13.0162ZM40.2116 13.9439C40.4278 14.3764 40.6364 15.1544 40.6364 16.4545H46.6364C46.6364 14.5956 46.3506 12.8055 45.5782 11.2606L40.2116 13.9439ZM40.6364 16.4545C40.6364 17.6777 40.4421 18.4557 40.2184 18.9275L45.6396 21.4987C46.359 19.9818 46.6364 18.2541 46.6364 16.4545H40.6364ZM40.2124 18.9402C39.9453 19.5103 39.6734 19.763 39.4673 19.8914L42.6407 24.9836C44.0027 24.1347 44.9809 22.9045 45.6455 21.486L40.2124 18.9402ZM39.459 19.8966C39.1654 20.0809 38.8645 20.1705 38.4886 20.1705V26.1705C39.9764 26.1705 41.3857 25.7714 42.649 24.9784L39.459 19.8966ZM38.4886 20.1705C38.1994 20.1705 38.0491 20.1241 37.986 20.0981L35.7015 25.6462C36.6044 26.018 37.5506 26.1705 38.4886 26.1705V20.1705ZM38.0255 20.1147C37.882 20.0532 37.8045 19.9918 37.7553 19.9417L33.4777 24.1492C34.1103 24.7923 34.8509 25.282 35.662 25.6296L38.0255 20.1147ZM37.7897 19.9774C37.7072 19.8907 37.6547 19.807 37.6164 19.7136L32.0654 21.9909C32.3907 22.7839 32.8553 23.4957 33.4432 24.1135L37.7897 19.9774ZM34.8409 17.8523H34.7727V23.8523H34.8409V17.8523ZM31.7727 20.8523V27.9091L37.7727 27.9091V20.8523L31.7727 20.8523ZM34.7727 24.9091L30.0682 24.9091V30.9091L34.7727 30.9091V24.9091ZM31.6705 16.4545C31.6705 17.3386 31.7835 18.2437 32.0893 19.1082L37.7459 17.1077C37.7222 17.0404 37.6705 16.8432 37.6705 16.4545L31.6705 16.4545ZM32.1044 19.1499C32.4155 19.9901 32.9208 20.8263 33.713 21.4865L37.5541 16.8772C37.6388 16.9477 37.6921 17.0148 37.7206 17.0575C37.7475 17.0978 37.7461 17.1072 37.7309 17.066L32.1044 19.1499ZM33.7594 21.5244C34.6472 22.2346 35.6945 22.5568 36.75 22.5568V16.5568C36.8266 16.5568 36.9513 16.5685 37.1022 16.6192C37.256 16.6708 37.3947 16.7489 37.5076 16.8392L33.7594 21.5244ZM36.75 22.5568C37.7871 22.5568 38.8428 22.2476 39.7396 21.52L35.9593 16.8607C36.0878 16.7564 36.2396 16.6726 36.4 16.6191C36.5564 16.567 36.6811 16.5568 36.75 16.5568V22.5568ZM39.7444 21.516C40.5735 20.8405 41.0843 19.9712 41.3837 19.1051L35.7129 17.1449C35.7028 17.174 35.7081 17.1485 35.7458 17.091C35.7855 17.0305 35.853 16.9473 35.9544 16.8646L39.7444 21.516ZM41.3766 19.1253C41.6841 18.2558 41.7955 17.3431 41.7955 16.4545H35.7955C35.7955 16.8614 35.742 17.0624 35.72 17.1247L41.3766 19.1253ZM41.7955 16.4545C41.7955 15.5676 41.6846 14.6524 41.3727 13.7814L35.7239 15.8038C35.7416 15.8533 35.7955 16.0461 35.7955 16.4545H41.7955ZM41.3873 13.8232C41.0901 12.9528 40.5752 12.0628 39.7182 11.3804L35.9807 16.0741C35.7373 15.8803 35.6883 15.7006 35.7092 15.762L41.3873 13.8232ZM39.7657 11.419C38.8695 10.675 37.8045 10.3523 36.75 10.3523V16.3523C36.6741 16.3523 36.5425 16.3408 36.3803 16.2854C36.2141 16.2287 36.0605 16.1412 35.9332 16.0355L39.7657 11.419ZM36.75 10.3523C35.6945 10.3523 34.6472 10.6745 33.7594 11.3847L37.5076 16.0699C37.3947 16.1602 37.256 16.2383 37.1022 16.2899C36.9513 16.3406 36.8266 16.3523 36.75 16.3523V10.3523ZM33.7647 11.3804C32.9264 12.048 32.4104 12.9141 32.1002 13.7619L37.735 15.8234C37.7657 15.7394 37.727 15.8952 37.5023 16.0741L33.7647 11.3804ZM32.0932 13.7814C31.7813 14.6524 31.6705 15.5676 31.6705 16.4545L37.6705 16.4545C37.6705 16.0461 37.7243 15.8533 37.7421 15.8038L32.0932 13.7814ZM58.1953 9.90909H61.1953V6.90909H58.1953V9.90909ZM58.1953 13.3182V16.3182H61.1953V13.3182H58.1953ZM49.5703 13.3182L46.5703 13.3182V16.3182H49.5703V13.3182ZM49.5703 9.90909V6.90909H46.5703V9.90909L49.5703 9.90909ZM51.2408 6.77273V3.77273H48.2408V6.77273H51.2408ZM55.9453 6.77273L58.9453 6.77273V3.77273H55.9453V6.77273ZM56.0391 19.25L53.3558 20.5916L53.3684 20.617L53.3816 20.642L56.0391 19.25ZM56.3288 19.5227L55.0345 22.2291L55.0832 22.2524L55.1327 22.2739L56.3288 19.5227ZM57.326 19.5568L56.8046 16.6025L56.797 16.6038L56.7893 16.6052L57.326 19.5568ZM57.7521 19.4716L60.6903 18.8658L60.0587 15.8026L57.0245 16.5612L57.7521 19.4716ZM58.4339 22.7784L59.2889 25.654L61.9282 24.8694L61.3721 22.1726L58.4339 22.7784ZM57.5305 23.0085L56.8529 20.0861L56.8434 20.0883L57.5305 23.0085ZM56.1499 23.1875L56.3075 26.1834L56.3092 26.1833L56.1499 23.1875ZM53.4311 22.8551L52.3469 25.6523L52.3564 25.656L52.3658 25.6596L53.4311 22.8551ZM51.7777 21.517L49.2137 23.0746L51.7777 21.517ZM51.2408 19.233L54.2405 19.2702L54.2408 19.2516V19.233H51.2408ZM55.1953 9.90909V13.3182H61.1953V9.90909H55.1953ZM58.1953 10.3182H49.5703V16.3182H58.1953V10.3182ZM52.5703 13.3182V9.90909L46.5703 9.90909V13.3182L52.5703 13.3182ZM49.5703 12.9091H58.1953V6.90909L49.5703 6.90909V12.9091ZM51.2408 9.77273H55.9453V3.77273L51.2408 3.77273V9.77273ZM52.9453 6.77273V18.7898H58.9453V6.77273L52.9453 6.77273ZM52.9453 18.7898C52.9453 19.3022 53.032 19.944 53.3558 20.5916L58.7223 17.9084C58.9211 18.306 58.9453 18.641 58.9453 18.7898H52.9453ZM53.3816 20.642C53.7678 21.3795 54.3662 21.9095 55.0345 22.2291L57.6232 16.8163C58.0301 17.0109 58.4353 17.3592 58.6966 17.858L53.3816 20.642ZM55.1327 22.2739C55.7676 22.55 56.3809 22.608 56.8317 22.608V16.608C56.8648 16.608 56.9428 16.61 57.0539 16.6288C57.1648 16.6476 57.3301 16.6868 57.525 16.7715L55.1327 22.2739ZM56.8317 22.608C57.2027 22.608 57.5538 22.5646 57.8626 22.5084L56.7893 16.6052C56.7602 16.6105 56.7488 16.6115 56.7531 16.6111C56.7569 16.6107 56.7844 16.608 56.8317 16.608V22.608ZM57.8474 22.5112C58.0521 22.475 58.2809 22.4317 58.4797 22.382L57.0245 16.5612C57.0429 16.5566 57.0356 16.5589 56.9891 16.5682C56.9465 16.5767 56.8861 16.5881 56.8046 16.6025L57.8474 22.5112ZM54.8139 20.0774L55.4958 23.3842L61.3721 22.1726L60.6903 18.8658L54.8139 20.0774ZM57.579 19.9028C57.4568 19.9391 57.2256 19.9996 56.8529 20.0861L58.2082 25.931C58.6195 25.8356 58.9906 25.7427 59.2889 25.654L57.579 19.9028ZM56.8434 20.0883C56.6782 20.1271 56.4037 20.1698 55.9905 20.1917L56.3092 26.1833C56.9642 26.1484 57.6102 26.0717 58.2177 25.9288L56.8434 20.0883ZM55.9922 20.1916C55.1813 20.2343 54.7214 20.1361 54.4964 20.0506L52.3658 25.6596C53.6067 26.131 54.9594 26.2543 56.3075 26.1834L55.9922 20.1916ZM54.5153 20.0579C54.4078 20.0162 54.3642 19.9827 54.3553 19.9755C54.3491 19.9705 54.3476 19.9693 54.3417 19.9595L49.2137 23.0746C49.9625 24.3072 51.0661 25.1559 52.3469 25.6523L54.5153 20.0579ZM54.3417 19.9595C54.3367 19.9513 54.2342 19.7815 54.2405 19.2702L48.241 19.1957C48.2246 20.5139 48.48 21.8668 49.2137 23.0746L54.3417 19.9595ZM54.2408 19.233V6.77273H48.2408V19.233H54.2408ZM62.6335 22.3949L61.1641 25.0104L61.1753 25.0167L62.6335 22.3949ZM60.3068 20.0256L57.6569 21.432L57.6602 21.4381L60.3068 20.0256ZM60.3068 12.9602L62.9535 14.3728L62.9567 14.3666L60.3068 12.9602ZM62.6335 10.5909L64.0917 13.2127L64.1029 13.2064L62.6335 10.5909ZM69.929 10.5909L68.4596 13.2064L68.4708 13.2127L69.929 10.5909ZM72.2557 12.9602L69.6058 14.3666L69.609 14.3728L72.2557 12.9602ZM72.2557 20.0256L74.9023 21.4381L74.9056 21.432L72.2557 20.0256ZM69.929 22.3949L71.3872 25.0167L71.3984 25.0104L69.929 22.3949ZM67.3466 19.3608L69.3796 21.5669L69.3796 21.5669L67.3466 19.3608ZM68.0199 18.2187L70.8756 19.1378L68.0199 18.2187ZM68.0199 14.6903L65.1641 15.6094L65.1673 15.6191L68.0199 14.6903ZM67.3466 13.5483L69.3796 11.3422L69.3796 11.3422L67.3466 13.5483ZM64.5426 14.6903L67.3952 15.6191L67.3984 15.6094L64.5426 14.6903ZM64.5426 18.2187L67.3984 17.2997L64.5426 18.2187ZM66.2812 20.2386C65.2561 20.2386 64.5664 20.0371 64.0917 19.7731L61.1753 25.0167C62.7234 25.8777 64.4655 26.2386 66.2812 26.2386V20.2386ZM64.1029 19.7794C63.5844 19.4881 63.2203 19.1129 62.9535 18.613L57.6602 21.4381C58.4729 22.9609 59.6599 24.1653 61.1641 25.0104L64.1029 19.7794ZM62.9567 18.6192C62.682 18.1016 62.4972 17.4202 62.4972 16.4886H56.4972C56.4972 18.2389 56.8521 19.9155 57.6569 21.432L62.9567 18.6192ZM62.4972 16.4886C62.4972 15.5566 62.6822 14.8811 62.9535 14.3728L57.6602 11.5477C56.8519 13.0621 56.4972 14.7388 56.4972 16.4886H62.4972ZM62.9567 14.3666C63.2235 13.864 63.5839 13.4951 64.0917 13.2127L61.1753 7.96913C59.6605 8.81168 58.4697 10.0223 57.6569 11.5538L62.9567 14.3666ZM64.1029 13.2064C64.5752 12.9411 65.2608 12.7386 66.2812 12.7386V6.73864C64.4608 6.73864 62.7146 7.10437 61.1641 7.9754L64.1029 13.2064ZM66.2812 12.7386C67.3017 12.7386 67.9873 12.9411 68.4596 13.2064L71.3984 7.9754C69.8479 7.10437 68.1017 6.73864 66.2812 6.73864V12.7386ZM68.4708 13.2127C68.9786 13.4951 69.339 13.864 69.6058 14.3666L74.9056 11.5538C74.0928 10.0223 72.902 8.81168 71.3872 7.96913L68.4708 13.2127ZM69.609 14.3728C69.8803 14.8811 70.0653 15.5566 70.0653 16.4886H76.0653C76.0653 14.7388 75.7106 13.0621 74.9023 11.5477L69.609 14.3728ZM70.0653 16.4886C70.0653 17.4202 69.8805 18.1016 69.6058 18.6192L74.9056 21.432C75.7104 19.9155 76.0653 18.2389 76.0653 16.4886H70.0653ZM69.609 18.613C69.3422 19.1129 68.9781 19.4881 68.4596 19.7794L71.3984 25.0104C72.9026 24.1653 74.0896 22.9609 74.9023 21.4381L69.609 18.613ZM68.4708 19.7731C67.9961 20.0371 67.3064 20.2386 66.2812 20.2386V26.2386C68.097 26.2386 69.8391 25.8777 71.3872 25.0167L68.4708 19.7731ZM66.3153 22.7614C67.4586 22.7614 68.5302 22.3497 69.3796 21.5669L65.3135 17.1547C65.4255 17.0516 65.5839 16.943 65.7852 16.8648C65.986 16.7868 66.172 16.7614 66.3153 16.7614V22.7614ZM69.3796 21.5669C70.1523 20.8548 70.6068 19.9732 70.8756 19.1378L65.1641 17.2997C65.1148 17.4529 65.1204 17.3327 65.3135 17.1547L69.3796 21.5669ZM70.8756 19.1378C71.1549 18.2702 71.2585 17.3566 71.2585 16.4545H65.2585C65.2585 16.9162 65.2031 17.1786 65.1641 17.2997L70.8756 19.1378ZM71.2585 16.4545C71.2585 15.5512 71.1559 14.632 70.8725 13.7616L65.1673 15.6191C65.202 15.7259 65.2585 15.9829 65.2585 16.4545H71.2585ZM70.8756 13.7712C70.6068 12.9359 70.1523 12.0543 69.3796 11.3422L65.3135 15.7544C65.1204 15.5764 65.1148 15.4561 65.1641 15.6094L70.8756 13.7712ZM69.3796 11.3422C68.5302 10.5594 67.4586 10.1477 66.3153 10.1477V16.1477C66.172 16.1477 65.986 16.1223 65.7852 16.0443C65.5839 15.9661 65.4255 15.8575 65.3135 15.7544L69.3796 11.3422ZM66.3153 10.1477C65.1972 10.1477 64.1187 10.5267 63.2425 11.3037L67.2234 15.7929C67.1086 15.8946 66.9552 15.9931 66.7706 16.0614C66.5881 16.1289 66.4275 16.1477 66.3153 16.1477V10.1477ZM63.2425 11.3037C62.4388 12.0164 61.9637 12.911 61.6869 13.7713L67.3984 15.6094C67.4397 15.481 67.4248 15.6142 67.2234 15.7929L63.2425 11.3037ZM61.69 13.7616C61.4066 14.632 61.304 15.5512 61.304 16.4545H67.304C67.304 15.9829 67.3605 15.7259 67.3952 15.6191L61.69 13.7616ZM61.304 16.4545C61.304 17.3566 61.4076 18.2702 61.6869 19.1378L67.3984 17.2997C67.3594 17.1786 67.304 16.9162 67.304 16.4545H61.304ZM61.6869 19.1378C61.9637 19.9981 62.4388 20.8927 63.2425 21.6054L67.2234 17.1162C67.4248 17.2948 67.4397 17.428 67.3984 17.2997L61.6869 19.1378ZM63.2425 21.6054C64.1187 22.3824 65.1972 22.7614 66.3153 22.7614V16.7614C66.4275 16.7614 66.5881 16.7802 66.7706 16.8477C66.9552 16.916 67.1086 17.0145 67.2234 17.1162L63.2425 21.6054ZM91.7216 14.1705V17.1705H94.8471L94.7191 14.0476L91.7216 14.1705ZM87.392 14.1705L84.4029 14.4249L84.6365 17.1705H87.392V14.1705ZM87.1108 13.4801L89.3933 11.5333V11.5333L87.1108 13.4801ZM86.4716 13.0369L85.3047 15.8007L85.3413 15.8162L85.3784 15.8307L86.4716 13.0369ZM84.5795 13.0966L83.217 10.4239H83.217L84.5795 13.0966ZM84.1534 13.7273L87.1521 13.8155L87.1543 13.7401L87.1528 13.6648L84.1534 13.7273ZM84.4006 14.2642L82.3155 16.4212L82.3332 16.4382L82.3511 16.455L84.4006 14.2642ZM85.4148 14.6477L84.8781 17.5993L84.8848 17.6005L85.4148 14.6477ZM88.0739 15.125L88.6116 12.1736L88.6039 12.1722L88.0739 15.125ZM91.0653 16.3608L89.0747 18.6052L89.085 18.6143L89.0954 18.6234L91.0653 16.3608ZM92.0625 18.6705L95.0624 18.6887L95.0626 18.6708L95.0624 18.6528L92.0625 18.6705ZM91.2273 21.0994L88.8866 19.223L88.8847 19.2253L91.2273 21.0994ZM88.9858 22.6847L90.0796 25.4782L90.0884 25.4747L88.9858 22.6847ZM81.0597 22.0114L79.2951 24.4376L79.301 24.4418L81.0597 22.0114ZM79.1761 18.7727V15.7727H75.8696L76.1903 19.0637L79.1761 18.7727ZM83.8466 18.7727L86.8131 18.3257L86.4284 15.7727H83.8466V18.7727ZM84.4602 19.7358L82.8152 22.2445L82.8389 22.2601L82.8629 22.2752L84.4602 19.7358ZM86.8551 19.8466L85.4711 17.1849L85.46 17.1907L85.449 17.1965L86.8551 19.8466ZM87.2898 19.2159L90.2891 19.2784L90.2905 19.2131L90.289 19.1477L87.2898 19.2159ZM86.9148 18.6193L85.3357 21.1701L85.3491 21.1784L85.3625 21.1865L86.9148 18.6193ZM85.7898 18.2614L86.3149 15.3077L86.3111 15.307L85.7898 18.2614ZM83.4716 17.8523L83.993 14.8979L83.9872 14.8969L83.4716 17.8523ZM80.4716 16.5227L82.5745 14.3832L80.4716 16.5227ZM79.483 14L82.4829 14.0166L82.483 13.9989L82.4829 13.9813L79.483 14ZM80.1989 11.6903L77.8194 9.86326L77.817 9.8664L80.1989 11.6903ZM82.2869 10.2415L83.315 13.0598L83.3249 13.0562L82.2869 10.2415ZM89.9915 10.9148L88.2406 13.3508L88.2466 13.3551L89.9915 10.9148ZM91.7216 11.1705H87.392V17.1705H91.7216V11.1705ZM90.3812 13.9161C90.3085 13.0617 89.9879 12.2303 89.3933 11.5333L84.8283 15.427C84.7076 15.2855 84.6029 15.1173 84.5264 14.9295C84.4505 14.7432 84.4151 14.5692 84.4029 14.4249L90.3812 13.9161ZM89.3933 11.5333C88.8751 10.9258 88.2369 10.5062 87.5648 10.2432L85.3784 15.8307C85.229 15.7722 85.0169 15.6481 84.8283 15.427L89.3933 11.5333ZM87.6385 10.2732C86.9698 9.99083 86.2823 9.875 85.6193 9.875V15.875C85.5814 15.875 85.462 15.8671 85.3047 15.8007L87.6385 10.2732ZM85.6193 9.875C84.8539 9.875 84.0181 10.0155 83.217 10.4239L85.9421 15.7693C85.7206 15.8822 85.5779 15.875 85.6193 15.875V9.875ZM83.217 10.4239C82.7442 10.6649 82.1944 11.0572 81.7699 11.6855C81.3253 12.3435 81.1393 13.0827 81.1541 13.7898L87.1528 13.6648C87.1618 14.0991 87.044 14.5968 86.7414 15.0446C86.459 15.4627 86.1251 15.676 85.9421 15.7693L83.217 10.4239ZM81.1547 13.6391C81.1187 14.8622 81.6867 15.8133 82.3155 16.4212L86.4856 12.1072C86.6149 12.2322 86.7936 12.4425 86.9361 12.752C87.0845 13.0744 87.1631 13.4402 87.1521 13.8155L81.1547 13.6391ZM82.3511 16.455C83.209 17.2576 84.3149 17.4969 84.8781 17.5993L85.9514 11.6961C85.8144 11.6712 85.7934 11.6572 85.8473 11.6776C85.8779 11.6892 85.9497 11.7182 86.0468 11.7735C86.1426 11.828 86.289 11.9227 86.45 12.0734L82.3511 16.455ZM84.8848 17.6005L87.5439 18.0778L88.6039 12.1722L85.9448 11.6949L84.8848 17.6005ZM87.5361 18.0764C88.6142 18.2728 89.0009 18.5397 89.0747 18.6052L93.056 14.1164C91.823 13.0228 90.2154 12.4658 88.6116 12.1736L87.5361 18.0764ZM89.0954 18.6234C89.1027 18.6297 89.0964 18.6253 89.0844 18.6091C89.0722 18.5925 89.0617 18.574 89.0547 18.5577C89.0479 18.542 89.049 18.5393 89.0523 18.5563C89.0558 18.5742 89.0621 18.6163 89.0626 18.6881L95.0624 18.6528C95.0523 16.927 94.417 15.3013 93.0353 14.0982L89.0954 18.6234ZM89.0626 18.6522C89.0607 18.9498 88.9895 19.0946 88.8866 19.223L93.568 22.9759C94.5674 21.7293 95.0529 20.2548 95.0624 18.6887L89.0626 18.6522ZM88.8847 19.2253C88.717 19.4349 88.4286 19.6791 87.8832 19.8946L90.0884 25.4747C91.4408 24.9402 92.6466 24.1276 93.5699 22.9735L88.8847 19.2253ZM87.892 19.8912C87.358 20.1003 86.6628 20.2386 85.7557 20.2386V26.2386C87.269 26.2386 88.7272 26.0077 90.0796 25.4781L87.892 19.8912ZM85.7557 20.2386C84.1238 20.2386 83.2588 19.8996 82.8184 19.5809L79.301 24.4418C81.1219 25.7594 83.3876 26.2386 85.7557 26.2386V20.2386ZM82.8242 19.5852C82.3671 19.2527 82.2065 18.9379 82.162 18.4817L76.1903 19.0637C76.4072 21.2894 77.5022 23.1336 79.2951 24.4376L82.8242 19.5852ZM79.1761 21.7727H83.8466V15.7727L79.1761 15.7727V21.7727ZM80.8801 19.2197C81.068 20.4668 81.7451 21.5428 82.8152 22.2445L86.1053 17.2271C86.2552 17.3254 86.4314 17.484 86.5769 17.7125C86.722 17.9402 86.7883 18.1611 86.8131 18.3257L80.8801 19.2197ZM82.8629 22.2752C83.8118 22.8721 84.8486 23.0682 85.7898 23.0682V17.0682C85.6628 17.0682 85.8132 17.0427 86.0576 17.1964L82.8629 22.2752ZM85.7898 23.0682C86.5393 23.0682 87.4194 22.9433 88.2613 22.4966L85.449 17.1965C85.5943 17.1194 85.7102 17.0879 85.7691 17.0756C85.8261 17.0638 85.838 17.0682 85.7898 17.0682V23.0682ZM88.2392 22.5082C89.2931 21.9602 90.2562 20.859 90.2891 19.2784L84.2904 19.1534C84.2989 18.7452 84.423 18.2873 84.7067 17.8757C84.9744 17.4873 85.2865 17.2809 85.4711 17.1849L88.2392 22.5082ZM90.289 19.1477C90.2564 17.7119 89.4427 16.6421 88.467 16.0521L85.3625 21.1865C85.1694 21.0697 84.8864 20.8489 84.6518 20.4758C84.4073 20.0867 84.2992 19.6643 84.2906 19.2841L90.289 19.1477ZM88.4938 16.0685C87.7645 15.617 86.9371 15.4183 86.3149 15.3077L85.2647 21.2151C85.344 21.2292 85.407 21.2424 85.4554 21.2539C85.5041 21.2654 85.5329 21.274 85.5449 21.2778C85.5575 21.2818 85.545 21.2785 85.5131 21.2647C85.4821 21.2512 85.419 21.2217 85.3357 21.1701L88.4938 16.0685ZM86.3111 15.307L83.993 14.8979L82.9502 20.8066L85.2684 21.2157L86.3111 15.307ZM83.9872 14.8969C82.9921 14.7233 82.6492 14.4565 82.5745 14.3832L78.3686 18.6623C79.6236 19.8957 81.2806 20.5153 82.956 20.8076L83.9872 14.8969ZM82.5745 14.3832C82.5333 14.3426 82.5248 14.3221 82.519 14.3074C82.5108 14.2865 82.4819 14.2029 82.4829 14.0166L76.483 13.9834C76.4734 15.7299 77.0633 17.3792 78.3686 18.6623L82.5745 14.3832ZM82.4829 13.9813C82.4807 13.6372 82.5598 13.5415 82.5807 13.5143L77.817 9.8664C76.872 11.1005 76.4738 12.5446 76.483 14.0187L82.4829 13.9813ZM82.5783 13.5174C82.6562 13.416 82.8397 13.2332 83.315 13.0598L81.2589 7.42313C79.9274 7.90882 78.7188 8.69194 77.8194 9.86326L82.5783 13.5174ZM83.3249 13.0562C83.8222 12.8728 84.5311 12.7386 85.517 12.7386V6.73864C84.0144 6.73864 82.5698 6.9397 81.249 7.42675L83.3249 13.0562ZM85.517 12.7386C87.0294 12.7386 87.8302 13.0558 88.2406 13.3508L91.7424 8.47873C89.971 7.20553 87.7888 6.73864 85.517 6.73864V12.7386ZM88.2466 13.3551C88.5653 13.583 88.7039 13.7997 88.7241 14.2933L94.7191 14.0476C94.6257 11.7685 93.6108 9.81469 91.7364 8.47443L88.2466 13.3551ZM101.672 9.90909H104.672V6.90909L101.672 6.90909V9.90909ZM101.672 13.3182V16.3182H104.672V13.3182H101.672ZM93.0469 13.3182H90.0469V16.3182H93.0469V13.3182ZM93.0469 9.90909V6.90909H90.0469V9.90909H93.0469ZM94.7173 6.77273V3.77273L91.7173 3.77273V6.77273H94.7173ZM99.4219 6.77273H102.422V3.77273L99.4219 3.77273V6.77273ZM99.5156 19.25L96.8323 20.5916L96.845 20.617L96.8581 20.642L99.5156 19.25ZM99.8054 19.5227L98.511 22.2291L98.5597 22.2524L98.6092 22.2739L99.8054 19.5227ZM100.803 19.5568L100.281 16.6025L100.274 16.6038L100.266 16.6052L100.803 19.5568ZM101.229 19.4716L104.167 18.8658L103.535 15.8026L100.501 16.5612L101.229 19.4716ZM101.911 22.7784L102.765 25.654L105.405 24.8694L104.849 22.1726L101.911 22.7784ZM101.007 23.0085L100.329 20.0861L100.32 20.0883L101.007 23.0085ZM99.6264 23.1875L99.7841 26.1834L99.7858 26.1833L99.6264 23.1875ZM96.9077 22.8551L95.8235 25.6523L95.8329 25.656L95.8424 25.6596L96.9077 22.8551ZM95.2543 21.517L92.6903 23.0746L95.2543 21.517ZM94.7173 19.233L97.7171 19.2702L97.7173 19.2516V19.233L94.7173 19.233ZM98.6719 9.90909V13.3182H104.672V9.90909H98.6719ZM101.672 10.3182H93.0469V16.3182L101.672 16.3182V10.3182ZM96.0469 13.3182V9.90909H90.0469V13.3182H96.0469ZM93.0469 12.9091H101.672V6.90909H93.0469V12.9091ZM94.7173 9.77273H99.4219V3.77273H94.7173V9.77273ZM96.4219 6.77273V18.7898H102.422V6.77273H96.4219ZM96.4219 18.7898C96.4219 19.3022 96.5085 19.944 96.8323 20.5916L102.199 17.9084C102.398 18.306 102.422 18.641 102.422 18.7898H96.4219ZM96.8581 20.642C97.2444 21.3795 97.8428 21.9095 98.511 22.2291L101.1 16.8163C101.507 17.0109 101.912 17.3592 102.173 17.858L96.8581 20.642ZM98.6092 22.2739C99.2441 22.55 99.8575 22.608 100.308 22.608V16.608C100.341 16.608 100.419 16.61 100.53 16.6288C100.641 16.6476 100.807 16.6868 101.002 16.7715L98.6092 22.2739ZM100.308 22.608C100.679 22.608 101.03 22.5646 101.339 22.5084L100.266 16.6052C100.237 16.6105 100.225 16.6115 100.23 16.6111C100.233 16.6107 100.261 16.608 100.308 16.608V22.608ZM101.324 22.5112C101.529 22.475 101.757 22.4317 101.956 22.382L100.501 16.5612C100.519 16.5566 100.512 16.5589 100.466 16.5682C100.423 16.5767 100.363 16.5881 100.281 16.6025L101.324 22.5112ZM98.2905 20.0774L98.9723 23.3842L104.849 22.1726L104.167 18.8658L98.2905 20.0774ZM101.056 19.9028C100.933 19.9391 100.702 19.9996 100.329 20.0861L101.685 25.931C102.096 25.8356 102.467 25.7427 102.765 25.654L101.056 19.9028ZM100.32 20.0883C100.155 20.1271 99.8802 20.1698 99.4671 20.1917L99.7858 26.1833C100.441 26.1484 101.087 26.0717 101.694 25.9288L100.32 20.0883ZM99.4687 20.1916C98.6578 20.2343 98.198 20.1361 97.9729 20.0506L95.8424 25.6596C97.0833 26.131 98.4359 26.2543 99.7841 26.1834L99.4687 20.1916ZM97.9919 20.0579C97.8843 20.0162 97.8407 19.9827 97.8318 19.9755C97.8257 19.9705 97.8242 19.9693 97.8182 19.9595L92.6903 23.0746C93.4391 24.3072 94.5426 25.1559 95.8235 25.6523L97.9919 20.0579ZM97.8182 19.9595C97.8133 19.9513 97.7107 19.7815 97.7171 19.2702L91.7176 19.1957C91.7012 20.5139 91.9566 21.8668 92.6903 23.0746L97.8182 19.9595ZM97.7173 19.233V6.77273H91.7173V19.233L97.7173 19.233ZM105.023 22.7955L103.821 25.5439L103.836 25.5504L103.851 25.5567L105.023 22.7955ZM103.523 21.5341L101.004 23.1628V23.1628L103.523 21.5341ZM103.344 17.554L106.046 18.8591L106.051 18.8473L103.344 17.554ZM104.367 16.3011L106.152 18.7124L104.367 16.3011ZM105.893 15.5597L105.054 12.6793L105.046 12.6816L105.893 15.5597ZM107.785 15.2273L108.011 18.2187L108.017 18.2183L107.785 15.2273ZM109.549 15.0227L110.079 17.9755L110.094 17.9729L110.109 17.9701L109.549 15.0227ZM110.521 14.6733L112.31 17.0815L112.331 17.0653L112.353 17.0486L110.521 14.6733ZM110.427 13.25L108.714 15.7127V15.7127L110.427 13.25ZM108.322 13.2756L110.032 15.7404L110.042 15.7333L108.322 13.2756ZM107.819 14.1705V17.1705H110.426L110.79 14.5889L107.819 14.1705ZM103.489 14.1705L100.497 13.9567L100.267 17.1705H103.489V14.1705ZM104.248 11.9716L101.758 10.2978L101.755 10.3026L104.248 11.9716ZM106.234 10.3523L107.496 13.0735L107.504 13.0702L107.511 13.0667L106.234 10.3523ZM112.012 10.071L111.156 12.9463L111.166 12.9493L111.176 12.9523L112.012 10.071ZM113.913 10.983L112.113 13.383L112.121 13.3892L112.129 13.3955L113.913 10.983ZM115.106 12.3466L112.446 13.7343L112.455 13.7516L112.464 13.7689L115.106 12.3466ZM115.523 23V26H118.523V23H115.523ZM111.126 23H108.126V26H111.126V23ZM111.126 21.1591H114.126V18.1591H111.126V21.1591ZM111.023 21.1591V18.1591H109.226L108.378 19.7441L111.023 21.1591ZM110.069 22.3437L108.19 20.0046L108.182 20.0116L108.173 20.0187L110.069 22.3437ZM108.799 23L107.975 20.1154L107.966 20.1181L108.799 23ZM109.779 20.017L108.516 17.296L108.506 17.3004L108.497 17.3048L109.779 20.017ZM110.555 19.3778L108.113 17.6341V17.6341L110.555 19.3778ZM110.853 17.2727H113.853V12.8041L109.717 14.4961L110.853 17.2727ZM110.452 17.4176L109.538 14.5603L109.521 14.5658L109.504 14.5716L110.452 17.4176ZM110.009 17.5455L109.282 14.635L109.269 14.6382L109.256 14.6415L110.009 17.5455ZM109.515 17.6562L108.945 14.7109L108.936 14.7127L108.927 14.7145L109.515 17.6562ZM108.978 17.75L108.529 14.7838L108.515 14.786L108.978 17.75ZM108.083 18.0312L109.529 20.6599L109.54 20.6538L109.551 20.6477L108.083 18.0312ZM107.572 18.5L105.006 16.9451L104.999 16.9567L104.992 16.9684L107.572 18.5ZM107.793 19.9489L109.602 17.5553L107.793 19.9489ZM107.239 20.2045C106.729 20.2045 106.402 20.1215 106.196 20.0342L103.851 25.5567C104.929 26.0148 106.079 26.2045 107.239 26.2045V20.2045ZM106.226 20.047C106.108 19.9953 106.075 19.9545 106.043 19.9054L101.004 23.1628C101.7 24.2387 102.666 25.0388 103.821 25.5439L106.226 20.047ZM106.043 19.9054C106.074 19.9534 105.978 19.8476 105.978 19.3864H99.978C99.978 20.6638 100.246 21.9898 101.004 23.1628L106.043 19.9054ZM105.978 19.3864C105.978 19.0022 106.044 18.8618 106.046 18.8591L100.643 16.2489C100.156 17.2575 99.978 18.3387 99.978 19.3864H105.978ZM106.051 18.8473C106.093 18.7594 106.125 18.7323 106.152 18.7124L102.582 13.8899C101.734 14.5177 101.084 15.3258 100.638 16.2607L106.051 18.8473ZM106.152 18.7124C106.277 18.6197 106.461 18.5197 106.739 18.4378L105.046 12.6816C104.166 12.9405 103.332 13.3348 102.582 13.8899L106.152 18.7124ZM106.732 18.44C107.096 18.3338 107.52 18.2559 108.011 18.2187L107.559 12.2358C106.698 12.3009 105.86 12.4446 105.054 12.6793L106.732 18.44ZM108.017 18.2183C108.796 18.1579 109.495 18.0803 110.079 17.9755L109.019 12.0699C108.716 12.1242 108.24 12.183 107.553 12.2362L108.017 18.2183ZM110.109 17.9701C110.688 17.8601 111.556 17.6412 112.31 17.0815L108.732 12.2651C108.841 12.1836 108.934 12.1314 108.995 12.1008C109.056 12.0698 109.098 12.0539 109.113 12.0485C109.139 12.0393 109.106 12.0533 108.989 12.0754L110.109 17.9701ZM112.353 17.0486C113.284 16.3303 113.819 15.2532 113.819 14.0682L107.819 14.0682C107.819 13.7851 107.878 13.4365 108.053 13.0805C108.229 12.725 108.468 12.4678 108.688 12.2979L112.353 17.0486ZM113.819 14.0682V14.0341L107.819 14.0341V14.0682L113.819 14.0682ZM113.819 14.0341C113.819 12.7931 113.273 11.5751 112.14 10.7873L108.714 15.7127C108.47 15.5433 108.216 15.2818 108.038 14.924C107.863 14.574 107.819 14.2519 107.819 14.0341L113.819 14.0341ZM112.14 10.7873C111.25 10.168 110.269 9.97727 109.421 9.97727V15.9773C109.392 15.9773 109.081 15.9684 108.714 15.7127L112.14 10.7873ZM109.421 9.97727C108.537 9.97727 107.52 10.1751 106.601 10.8179L110.042 15.7333C109.692 15.9783 109.407 15.9773 109.421 15.9773V9.97727ZM106.611 10.8108C105.509 11.5759 104.996 12.702 104.848 13.752L110.79 14.5889C110.776 14.6877 110.733 14.8821 110.603 15.1138C110.466 15.3566 110.27 15.5754 110.032 15.7403L106.611 10.8108ZM107.819 11.1705H103.489V17.1705H107.819V11.1705ZM106.482 14.3842C106.501 14.1154 106.578 13.8829 106.741 13.6406L101.755 10.3026C101.02 11.4011 100.591 12.6346 100.497 13.9567L106.482 14.3842ZM106.738 13.6453C106.836 13.4986 107.035 13.2875 107.496 13.0735L104.971 7.631C103.693 8.22389 102.569 9.0923 101.758 10.2978L106.738 13.6453ZM107.511 13.0667C107.865 12.8999 108.482 12.7386 109.489 12.7386V6.73864C107.895 6.73864 106.34 6.98642 104.956 7.63782L107.511 13.0667ZM109.489 12.7386C110.195 12.7386 110.74 12.8225 111.156 12.9463L112.868 7.19574C111.795 6.87641 110.659 6.73864 109.489 6.73864V12.7386ZM111.176 12.9523C111.636 13.0856 111.928 13.2445 112.113 13.383L115.713 8.58295C114.852 7.93732 113.877 7.48825 112.848 7.18979L111.176 12.9523ZM112.129 13.3955C112.324 13.5393 112.405 13.6552 112.446 13.7343L117.766 10.9589C117.261 9.99254 116.547 9.19935 115.696 8.57043L112.129 13.3955ZM112.464 13.7689C112.499 13.8331 112.523 13.9044 112.523 14.0341H118.523C118.523 12.9479 118.269 11.8942 117.747 10.9243L112.464 13.7689ZM112.523 14.0341V23H118.523V14.0341H112.523ZM115.523 20H111.126V26H115.523V20ZM114.126 23V21.1591H108.126V23H114.126ZM111.126 18.1591H111.023V24.1591H111.126V18.1591ZM108.378 19.7441C108.279 19.93 108.206 19.9923 108.19 20.0046L111.947 24.6829C112.682 24.0929 113.245 23.3654 113.669 22.574L108.378 19.7441ZM108.173 20.0187C108.132 20.0518 108.077 20.0862 107.975 20.1154L109.623 25.8846C110.475 25.6411 111.267 25.238 111.965 24.6688L108.173 20.0187ZM107.966 20.1181C107.804 20.1649 107.569 20.2045 107.239 20.2045V26.2045C108.046 26.2045 108.851 26.1078 109.632 25.8819L107.966 20.1181ZM108.773 23.2386C109.559 23.2386 110.333 23.0733 111.061 22.7293L108.497 17.3048C108.543 17.2832 108.594 17.2653 108.648 17.2535C108.701 17.2418 108.745 17.2386 108.773 17.2386V23.2386ZM111.042 22.7381C111.819 22.3777 112.488 21.8331 112.996 21.1216L108.113 17.6341C108.163 17.565 108.227 17.4948 108.304 17.4314C108.38 17.3683 108.455 17.3245 108.516 17.296L111.042 22.7381ZM112.996 21.1216C113.615 20.2552 113.853 19.2817 113.853 18.3636H107.853C107.853 18.3122 107.86 18.2076 107.9 18.069C107.942 17.9264 108.012 17.7757 108.113 17.6341L112.996 21.1216ZM113.853 18.3636V17.2727H107.853V18.3636H113.853ZM109.717 14.4961C109.672 14.5146 109.613 14.5364 109.538 14.5603L111.367 20.2749C111.576 20.2079 111.784 20.1332 111.989 20.0494L109.717 14.4961ZM109.504 14.5716C109.449 14.5896 109.376 14.6113 109.282 14.635L110.737 20.4559C110.96 20.4 111.183 20.3365 111.401 20.2637L109.504 14.5716ZM109.256 14.6415C109.171 14.6637 109.067 14.6872 108.945 14.7109L110.085 20.6016C110.315 20.5571 110.541 20.5068 110.762 20.4494L109.256 14.6415ZM108.927 14.7145C108.806 14.7386 108.674 14.7619 108.529 14.7839L109.427 20.7161C109.657 20.6813 109.883 20.6421 110.103 20.598L108.927 14.7145ZM108.515 14.786C107.922 14.8786 107.253 15.057 106.615 15.4148L109.551 20.6477C109.459 20.699 109.397 20.72 109.381 20.7249C109.365 20.7299 109.382 20.7233 109.441 20.714L108.515 14.786ZM106.637 15.4026C106.034 15.7345 105.439 16.2316 105.006 16.9451L110.137 20.0549C109.932 20.3934 109.678 20.578 109.529 20.6599L106.637 15.4026ZM104.992 16.9684C104.588 17.6484 104.41 18.3891 104.41 19.1136H110.41C110.41 19.3836 110.339 19.7153 110.151 20.0316L104.992 16.9684ZM104.41 19.1136C104.41 20.2731 104.87 21.5004 105.985 22.3425L109.602 17.5553C109.851 17.7433 110.079 18.0109 110.232 18.3433C110.379 18.6634 110.41 18.9431 110.41 19.1136H104.41ZM105.985 22.3425C106.876 23.0159 107.883 23.2386 108.773 23.2386V17.2386C108.868 17.2386 109.222 17.2682 109.602 17.5553L105.985 22.3425ZM117.771 23H114.771V26H117.771V23ZM117.771 9.90909V6.90909H114.771V9.90909H117.771ZM122.339 9.90909H125.339V6.90909H122.339V9.90909ZM122.339 12.3977H119.339V15.3977H122.339V12.3977ZM122.476 12.3977V15.3977H124.797L125.38 13.1506L122.476 12.3977ZM123.609 10.3778L121.714 8.05259L121.708 8.05767L121.701 8.06278L123.609 10.3778ZM126.047 9.78977L125.54 12.7466L125.587 12.7547L125.634 12.7612L126.047 9.78977ZM126.635 9.91761H129.635V7.69199L127.505 7.04654L126.635 9.91761ZM126.635 13.9318L125.666 16.7709L129.635 18.1263V13.9318H126.635ZM125.774 13.7528L126.122 10.7731H126.122L125.774 13.7528ZM123.652 14.0085L125.123 16.6232L125.129 16.6195L125.136 16.6157L123.652 14.0085ZM122.791 14.8778L125.398 16.3619L125.403 16.3534L125.408 16.3449L122.791 14.8778ZM122.476 23V26H125.476V23H122.476ZM120.771 23V9.90909H114.771V23H120.771ZM117.771 12.9091H122.339V6.90909L117.771 6.90909V12.9091ZM119.339 9.90909V12.3977H125.339V9.90909H119.339ZM122.339 15.3977H122.476V9.39773H122.339V15.3977ZM125.38 13.1506C125.449 12.885 125.517 12.7373 125.554 12.6706C125.589 12.6089 125.585 12.6368 125.517 12.6929L121.701 8.06278C120.529 9.02874 119.905 10.3601 119.572 11.6448L125.38 13.1506ZM125.505 12.7031C125.508 12.7004 125.504 12.7045 125.492 12.7113C125.479 12.7183 125.464 12.7254 125.448 12.731C125.431 12.7367 125.42 12.739 125.416 12.7397C125.412 12.7403 125.42 12.7386 125.442 12.7386V6.73864C124.079 6.73864 122.793 7.17318 121.714 8.05259L125.505 12.7031ZM125.442 12.7386C125.479 12.7386 125.511 12.7416 125.54 12.7466L126.554 6.83291C126.185 6.76972 125.814 6.73864 125.442 6.73864V12.7386ZM125.634 12.7612C125.692 12.7693 125.735 12.7796 125.765 12.7887L127.505 7.04654C127.16 6.94203 126.811 6.86706 126.46 6.8183L125.634 12.7612ZM123.635 9.91761V13.9318H129.635V9.91761H123.635ZM127.604 11.0928C127.108 10.9234 126.598 10.8286 126.122 10.7731L125.427 16.7326C125.523 16.7439 125.591 16.7556 125.634 16.7646C125.678 16.7738 125.686 16.7779 125.666 16.7709L127.604 11.0928ZM126.122 10.7731C125.708 10.7247 125.293 10.6932 124.896 10.6932V16.6932C124.989 16.6932 125.159 16.7014 125.427 16.7326L126.122 10.7731ZM124.896 10.6932C123.96 10.6932 123.027 10.9125 122.168 11.4013L125.136 16.6157C125.085 16.6449 125.029 16.6669 124.977 16.6801C124.926 16.693 124.896 16.6932 124.896 16.6932V10.6932ZM122.181 11.3938C121.322 11.8769 120.645 12.5706 120.174 13.4108L125.408 16.3449C125.388 16.38 125.352 16.4331 125.296 16.4901C125.239 16.5476 125.178 16.5922 125.123 16.6232L122.181 11.3938ZM120.184 13.3937C119.674 14.2894 119.476 15.2539 119.476 16.1818H125.476C125.476 16.1419 125.48 16.1471 125.471 16.186C125.461 16.2272 125.439 16.2902 125.398 16.3619L120.184 13.3937ZM119.476 16.1818V23H125.476V16.1818H119.476ZM122.476 20H117.771V26H122.476V20ZM136.523 9.90909H139.523V6.90909H136.523V9.90909ZM136.523 13.3182V16.3182H139.523V13.3182H136.523ZM127.898 13.3182H124.898V16.3182H127.898V13.3182ZM127.898 9.90909V6.90909H124.898V9.90909H127.898ZM129.569 6.77273V3.77273H126.569V6.77273H129.569ZM134.273 6.77273L137.273 6.77273V3.77273H134.273V6.77273ZM134.367 19.25L131.684 20.5916L131.697 20.617L131.71 20.642L134.367 19.25ZM134.657 19.5227L133.363 22.2291L133.411 22.2524L133.461 22.2739L134.657 19.5227ZM135.654 19.5568L135.133 16.6025L135.125 16.6038L135.117 16.6052L135.654 19.5568ZM136.08 19.4716L139.018 18.8658L138.387 15.8026L135.353 16.5612L136.08 19.4716ZM136.762 22.7784L137.617 25.654L140.256 24.8694L139.7 22.1726L136.762 22.7784ZM135.859 23.0085L135.181 20.0861L135.172 20.0883L135.859 23.0085ZM134.478 23.1875L134.636 26.1834L134.637 26.1833L134.478 23.1875ZM131.759 22.8551L130.675 25.6523L130.684 25.656L130.694 25.6596L131.759 22.8551ZM130.106 21.517L127.542 23.0746L130.106 21.517ZM129.569 19.233L132.569 19.2702L132.569 19.2516V19.233H129.569ZM133.523 9.90909V13.3182H139.523V9.90909H133.523ZM136.523 10.3182H127.898V16.3182H136.523V10.3182ZM130.898 13.3182V9.90909H124.898V13.3182H130.898ZM127.898 12.9091H136.523V6.90909L127.898 6.90909V12.9091ZM129.569 9.77273H134.273V3.77273L129.569 3.77273V9.77273ZM131.273 6.77273V18.7898H137.273V6.77273L131.273 6.77273ZM131.273 18.7898C131.273 19.3022 131.36 19.944 131.684 20.5916L137.05 17.9084C137.249 18.306 137.273 18.641 137.273 18.7898H131.273ZM131.71 20.642C132.096 21.3795 132.694 21.9095 133.363 22.2291L135.951 16.8163C136.358 17.0109 136.763 17.3592 137.025 17.858L131.71 20.642ZM133.461 22.2739C134.096 22.55 134.709 22.608 135.16 22.608V16.608C135.193 16.608 135.271 16.61 135.382 16.6288C135.493 16.6476 135.658 16.6868 135.853 16.7715L133.461 22.2739ZM135.16 22.608C135.531 22.608 135.882 22.5646 136.191 22.5084L135.117 16.6052C135.088 16.6105 135.077 16.6115 135.081 16.6111C135.085 16.6107 135.112 16.608 135.16 16.608V22.608ZM136.175 22.5112C136.38 22.475 136.609 22.4317 136.808 22.382L135.353 16.5612C135.371 16.5566 135.364 16.5589 135.317 16.5682C135.275 16.5767 135.214 16.5881 135.133 16.6025L136.175 22.5112ZM133.142 20.0774L133.824 23.3842L139.7 22.1726L139.018 18.8658L133.142 20.0774ZM135.907 19.9028C135.785 19.9391 135.554 19.9996 135.181 20.0861L136.536 25.931C136.948 25.8356 137.319 25.7427 137.617 25.654L135.907 19.9028ZM135.172 20.0883C135.006 20.1271 134.732 20.1698 134.319 20.1917L134.637 26.1833C135.292 26.1484 135.938 26.0717 136.546 25.9288L135.172 20.0883ZM134.32 20.1916C133.509 20.2343 133.05 20.1361 132.825 20.0506L130.694 25.6596C131.935 26.131 133.287 26.2543 134.636 26.1834L134.32 20.1916ZM132.843 20.0579C132.736 20.0162 132.692 19.9827 132.683 19.9755C132.677 19.9705 132.676 19.9693 132.67 19.9595L127.542 23.0746C128.291 24.3072 129.394 25.1559 130.675 25.6523L132.843 20.0579ZM132.67 19.9595C132.665 19.9513 132.562 19.7815 132.569 19.2702L126.569 19.1957C126.553 20.5139 126.808 21.8668 127.542 23.0746L132.67 19.9595ZM132.569 19.233V6.77273H126.569V19.233H132.569ZM146.156 27.6193L147.27 24.8339L147.262 24.8304L146.156 27.6193ZM143.983 26.0852L141.628 27.9442L141.63 27.9468L143.983 26.0852ZM143.122 23.8523V20.8523H139.891L140.13 24.0746L143.122 23.8523ZM147.656 23.8523L150.617 23.3689L150.206 20.8523H147.656V23.8523ZM147.997 24.5256L145.945 26.7142L145.945 26.7142L147.997 24.5256ZM148.696 24.892L149.49 21.9991L149.471 21.9937L149.451 21.9886L148.696 24.892ZM151.176 24.5682L149.404 22.1479L149.395 22.1539L149.387 22.16L151.176 24.5682ZM151.781 20.75H154.781V17.75H151.781V20.75ZM151.645 20.75V17.75H149.584L148.845 19.6731L151.645 20.75ZM150.861 21.8835L152.831 24.1458L152.841 24.1368L152.852 24.1277L150.861 21.8835ZM149.591 22.5909L150.51 25.4467L150.525 25.4419L150.54 25.437L149.591 22.5909ZM145.389 22.1818L143.934 24.8052L143.942 24.8097L145.389 22.1818ZM143.514 20.1278L140.828 21.463L140.831 21.4695L140.834 21.476L143.514 20.1278ZM143.548 12.6023L140.865 11.2606L140.859 11.273L143.548 12.6023ZM145.457 10.429L143.939 7.84172L143.931 7.84657L145.457 10.429ZM149.634 10.0795L148.368 12.7997L148.381 12.8058L148.395 12.8117L149.634 10.0795ZM150.861 10.9744L148.607 12.9548L148.615 12.9633L148.622 12.9718L150.861 10.9744ZM151.611 12.1932L148.811 13.2701L149.55 15.1932H151.611V12.1932ZM151.713 12.1932V15.1932H154.713V12.1932H151.713ZM151.713 9.90909V6.90909H148.713V9.90909H151.713ZM156.418 9.90909H159.418V6.90909H156.418V9.90909ZM155.557 25.7869L153.148 23.9983L153.141 24.0082L153.134 24.0182L155.557 25.7869ZM153.153 27.5682L154.257 30.3578L153.153 27.5682ZM150.81 19.1307L152.651 21.4987L152.657 21.4941L150.81 19.1307ZM151.526 18.0909L148.717 17.0375L148.713 17.0473L148.709 17.0571L151.526 18.0909ZM151.526 14.7926L148.697 15.7929L148.705 15.8138L148.712 15.8346L151.526 14.7926ZM150.81 13.7273L148.915 16.053L148.938 16.0721L148.962 16.0907L150.81 13.7273ZM148.594 13.7273L150.484 16.057L150.489 16.053L148.594 13.7273ZM147.895 14.7926L145.067 13.7923L145.063 13.8024L145.06 13.8125L147.895 14.7926ZM147.895 18.108L145.063 19.099L145.071 19.1204L145.079 19.1418L147.895 18.108ZM148.594 19.1392L146.73 21.4904L146.755 21.5097L146.78 21.5285L148.594 19.1392ZM149.531 25.1818C148.491 25.1818 147.765 25.0316 147.27 24.8339L145.042 30.4047C146.423 30.957 147.946 31.1818 149.531 31.1818V25.1818ZM147.262 24.8304C146.72 24.6158 146.465 24.3872 146.336 24.2236L141.63 27.9468C142.535 29.09 143.729 29.8842 145.051 30.4083L147.262 24.8304ZM146.338 24.2263C146.206 24.0591 146.133 23.8878 146.114 23.6299L140.13 24.0746C140.236 25.4986 140.738 26.8159 141.628 27.9442L146.338 24.2263ZM143.122 26.8523H147.656V20.8523H143.122V26.8523ZM144.695 24.3357C144.833 25.1767 145.218 26.0322 145.945 26.7142L150.049 22.337C150.413 22.678 150.571 23.0846 150.617 23.3689L144.695 24.3357ZM145.945 26.7142C146.553 27.2838 147.258 27.618 147.941 27.7955L149.451 21.9886C149.566 22.0184 149.805 22.1082 150.049 22.337L145.945 26.7142ZM147.902 27.785C148.494 27.9476 149.091 28.0114 149.668 28.0114V22.0114C149.528 22.0114 149.477 21.9956 149.49 21.9991L147.902 27.785ZM149.668 28.0114C150.771 28.0114 151.942 27.7365 152.965 26.9764L149.387 22.16C149.489 22.0846 149.587 22.0423 149.655 22.0222C149.718 22.0037 149.73 22.0114 149.668 22.0114V28.0114ZM152.949 26.9885C154.473 25.8723 154.781 24.1587 154.781 22.9659H148.781C148.781 23.11 148.76 23.0542 148.823 22.8861C148.898 22.6883 149.072 22.3907 149.404 22.1479L152.949 26.9885ZM154.781 22.9659V20.75H148.781V22.9659H154.781ZM151.781 17.75H151.645V23.75H151.781V17.75ZM148.845 19.6731C148.843 19.6772 148.843 19.677 148.845 19.6737C148.847 19.6702 148.85 19.6651 148.854 19.6591C148.858 19.6531 148.862 19.6479 148.866 19.6438C148.869 19.6398 148.871 19.6383 148.87 19.6393L152.852 24.1277C153.566 23.4938 154.104 22.7145 154.445 21.8269L148.845 19.6731ZM148.89 19.6213C148.869 19.6395 148.804 19.6909 148.642 19.7449L150.54 25.437C151.366 25.1614 152.148 24.7411 152.831 24.1458L148.89 19.6213ZM148.672 19.7352C148.512 19.7865 148.284 19.8295 147.963 19.8295V25.8295C148.824 25.8295 149.681 25.7135 150.51 25.4467L148.672 19.7352ZM147.963 19.8295C147.516 19.8295 147.159 19.7315 146.836 19.554L143.942 24.8097C145.188 25.4958 146.547 25.8295 147.963 25.8295V19.8295ZM146.845 19.5584C146.682 19.4683 146.445 19.2773 146.194 18.7797L140.834 21.476C141.527 22.8534 142.54 24.0317 143.934 24.8052L146.845 19.5584ZM146.201 18.7927C146.012 18.4126 145.815 17.6935 145.815 16.4545H139.815C139.815 18.2383 140.085 19.9681 140.828 21.463L146.201 18.7927ZM145.815 16.4545C145.815 15.1505 146.022 14.3676 146.238 13.9315L140.859 11.273C140.097 12.8142 139.815 14.5995 139.815 16.4545H145.815ZM146.232 13.9439C146.525 13.3561 146.803 13.1185 146.984 13.0114L143.931 7.84657C142.555 8.65995 141.56 9.87119 140.865 11.2606L146.232 13.9439ZM146.976 13.0162C147.325 12.8114 147.628 12.7386 147.929 12.7386V6.73864C146.503 6.73864 145.158 7.12608 143.939 7.84173L146.976 13.0162ZM147.929 12.7386C148.227 12.7386 148.348 12.7902 148.368 12.7997L150.899 7.35938C149.942 6.91435 148.927 6.73864 147.929 6.73864V12.7386ZM148.395 12.8117C148.525 12.8709 148.579 12.9229 148.607 12.9548L153.114 8.99409C152.483 8.27594 151.719 7.73141 150.873 7.34736L148.395 12.8117ZM148.622 12.9718C148.721 13.0824 148.776 13.1794 148.811 13.2701L154.411 11.1162C154.105 10.3206 153.66 9.60513 153.099 8.97707L148.622 12.9718ZM151.611 15.1932H151.713V9.19318H151.611V15.1932ZM154.713 12.1932V9.90909H148.713V12.1932H154.713ZM151.713 12.9091H156.418V6.90909L151.713 6.90909V12.9091ZM153.418 9.90909V22.9659H159.418V9.90909H153.418ZM153.418 22.9659C153.418 23.5309 153.282 23.8186 153.148 23.9983L157.965 27.5756C158.98 26.2098 159.418 24.6168 159.418 22.9659H153.418ZM153.134 24.0182C152.949 24.2713 152.639 24.5453 152.05 24.7785L154.257 30.3578C155.736 29.7729 157.028 28.8594 157.98 27.5557L153.134 24.0182ZM152.05 24.7785C151.441 25.0195 150.622 25.1818 149.531 25.1818V31.1818C151.202 31.1818 152.798 30.935 154.257 30.3578L152.05 24.7785ZM149.702 22.4886C150.722 22.4886 151.759 22.1925 152.651 21.4987L148.968 16.7626C149.09 16.6677 149.232 16.5924 149.38 16.5444C149.525 16.4977 149.639 16.4886 149.702 16.4886V22.4886ZM152.657 21.4941C153.493 20.8406 154.024 19.9899 154.342 19.1247L148.709 17.0571C148.702 17.0769 148.711 17.0459 148.752 16.9862C148.795 16.9237 148.864 16.844 148.962 16.7673L152.657 21.4941ZM154.335 19.1443C154.664 18.2663 154.781 17.3448 154.781 16.4545H148.781C148.781 16.837 148.728 17.0064 148.717 17.0375L154.335 19.1443ZM154.781 16.4545C154.781 15.5585 154.665 14.632 154.339 13.7507L148.712 15.8346C148.727 15.8736 148.781 16.0552 148.781 16.4545H154.781ZM154.354 13.7923C154.045 12.9201 153.519 12.0373 152.657 11.3639L148.962 16.0907C148.725 15.9059 148.676 15.7333 148.697 15.7929L154.354 13.7923ZM152.705 11.4016C151.813 10.6748 150.757 10.3523 149.702 10.3523V16.3523C149.625 16.3523 149.497 16.3407 149.341 16.2877C149.181 16.2335 149.035 16.1508 148.915 16.053L152.705 11.4016ZM149.702 10.3523C148.647 10.3523 147.591 10.6748 146.699 11.4016L150.489 16.053C150.369 16.1508 150.223 16.2335 150.063 16.2877C149.906 16.3407 149.778 16.3523 149.702 16.3523V10.3523ZM146.704 11.3976C145.87 12.0737 145.366 12.9465 145.067 13.7923L150.723 15.7929C150.754 15.707 150.715 15.8694 150.484 16.057L146.704 11.3976ZM145.06 13.8125C144.762 14.6727 144.656 15.5766 144.656 16.4545H150.656C150.656 16.0371 150.709 15.8329 150.73 15.7727L145.06 13.8125ZM144.656 16.4545C144.656 17.3309 144.762 18.2373 145.063 19.099L150.726 17.1169C150.71 17.0696 150.656 16.8737 150.656 16.4545H144.656ZM145.079 19.1418C145.387 19.9831 145.902 20.834 146.73 21.4904L150.457 16.788C150.683 16.9672 150.732 17.1306 150.711 17.0741L145.079 19.1418ZM146.78 21.5285C147.671 22.2053 148.698 22.4886 149.702 22.4886V16.4886C149.757 16.4886 149.864 16.4964 150.003 16.5402C150.146 16.5851 150.285 16.6568 150.408 16.7499L146.78 21.5285ZM160.242 22.7955L159.04 25.5439L159.054 25.5504L159.069 25.5567L160.242 22.7955ZM158.742 21.5341L156.223 23.1628V23.1628L158.742 21.5341ZM158.563 17.554L161.264 18.8591L161.27 18.8473L158.563 17.554ZM159.586 16.3011L161.371 18.7124L159.586 16.3011ZM161.112 15.5597L160.273 12.6793L160.265 12.6816L161.112 15.5597ZM163.004 15.2273L163.23 18.2187L163.235 18.2183L163.004 15.2273ZM164.768 15.0227L165.298 17.9755L165.313 17.9729L165.327 17.9701L164.768 15.0227ZM165.739 14.6733L167.528 17.0815L167.55 17.0653L167.572 17.0486L165.739 14.6733ZM165.646 13.25L163.932 15.7127V15.7127L165.646 13.25ZM163.54 13.2756L165.251 15.7404L165.261 15.7333L163.54 13.2756ZM163.038 14.1705V17.1705H165.645L166.008 14.5889L163.038 14.1705ZM158.708 14.1705L155.716 13.9567L155.486 17.1705H158.708V14.1705ZM159.467 11.9716L156.977 10.2978L156.974 10.3026L159.467 11.9716ZM161.452 10.3523L162.715 13.0735L162.723 13.0702L162.73 13.0667L161.452 10.3523ZM167.231 10.071L166.375 12.9463L166.385 12.9493L166.395 12.9523L167.231 10.071ZM169.131 10.983L167.331 13.383L167.34 13.3892L167.348 13.3955L169.131 10.983ZM170.325 12.3466L167.665 13.7343L167.674 13.7516L167.683 13.7689L170.325 12.3466ZM170.742 23V26H173.742V23H170.742ZM166.344 23H163.344V26H166.344V23ZM166.344 21.1591H169.344V18.1591H166.344V21.1591ZM166.242 21.1591V18.1591H164.445L163.597 19.7441L166.242 21.1591ZM165.288 22.3437L163.409 20.0046L163.401 20.0116L163.392 20.0187L165.288 22.3437ZM164.018 23L163.194 20.1154L163.184 20.1181L164.018 23ZM164.998 20.017L163.735 17.296L163.725 17.3004L163.716 17.3048L164.998 20.017ZM165.773 19.3778L163.332 17.6341L163.332 17.6341L165.773 19.3778ZM166.072 17.2727H169.072V12.8041L164.936 14.4961L166.072 17.2727ZM165.671 17.4176L164.757 14.5603L164.74 14.5658L164.722 14.5716L165.671 17.4176ZM165.228 17.5455L164.5 14.635L164.488 14.6382L164.475 14.6415L165.228 17.5455ZM164.734 17.6562L164.164 14.7109L164.154 14.7127L164.145 14.7145L164.734 17.6562ZM164.197 17.75L163.747 14.7838L163.734 14.786L164.197 17.75ZM163.302 18.0312L164.748 20.6599L164.759 20.6538L164.77 20.6477L163.302 18.0312ZM162.79 18.5L160.225 16.9451L160.218 16.9567L160.211 16.9684L162.79 18.5ZM163.012 19.9489L164.821 17.5553L163.012 19.9489ZM162.458 20.2045C161.948 20.2045 161.621 20.1215 161.415 20.0342L159.069 25.5567C160.148 26.0148 161.298 26.2045 162.458 26.2045V20.2045ZM161.445 20.047C161.327 19.9953 161.293 19.9545 161.262 19.9054L156.223 23.1628C156.918 24.2387 157.885 25.0388 159.04 25.5439L161.445 20.047ZM161.262 19.9054C161.293 19.9534 161.197 19.8476 161.197 19.3864L155.197 19.3864C155.197 20.6638 155.465 21.9898 156.223 23.1628L161.262 19.9054ZM161.197 19.3864C161.197 19.0022 161.263 18.8618 161.264 18.8591L155.862 16.2489C155.375 17.2575 155.197 18.3387 155.197 19.3864L161.197 19.3864ZM161.27 18.8473C161.312 18.7594 161.344 18.7323 161.371 18.7124L157.801 13.8899C156.953 14.5177 156.303 15.3258 155.856 16.2607L161.27 18.8473ZM161.371 18.7124C161.496 18.6197 161.679 18.5197 161.958 18.4378L160.265 12.6816C159.385 12.9405 158.551 13.3348 157.801 13.8899L161.371 18.7124ZM161.95 18.44C162.315 18.3338 162.738 18.2559 163.23 18.2187L162.777 12.2358C161.917 12.3009 161.078 12.4446 160.273 12.6793L161.95 18.44ZM163.235 18.2183C164.014 18.1579 164.714 18.0803 165.298 17.9755L164.238 12.0699C163.935 12.1242 163.459 12.183 162.772 12.2362L163.235 18.2183ZM165.327 17.9701C165.907 17.8601 166.775 17.6412 167.528 17.0815L163.95 12.2651C164.06 12.1836 164.153 12.1314 164.214 12.1008C164.275 12.0698 164.317 12.0539 164.332 12.0485C164.357 12.0393 164.325 12.0533 164.208 12.0754L165.327 17.9701ZM167.572 17.0486C168.503 16.3303 169.038 15.2532 169.038 14.0682H163.038C163.038 13.7851 163.097 13.4365 163.272 13.0805C163.448 12.725 163.687 12.4678 163.907 12.2979L167.572 17.0486ZM169.038 14.0682V14.0341H163.038V14.0682H169.038ZM169.038 14.0341C169.038 12.7931 168.491 11.5751 167.359 10.7873L163.932 15.7127C163.689 15.5433 163.435 15.2818 163.256 14.924C163.081 14.574 163.038 14.2519 163.038 14.0341H169.038ZM167.359 10.7873C166.469 10.168 165.488 9.97727 164.64 9.97727V15.9773C164.61 15.9773 164.3 15.9684 163.932 15.7127L167.359 10.7873ZM164.64 9.97727C163.756 9.97727 162.738 10.1751 161.82 10.8179L165.261 15.7333C164.911 15.9783 164.626 15.9773 164.64 15.9773V9.97727ZM161.83 10.8108C160.728 11.5759 160.215 12.702 160.067 13.752L166.008 14.5889C165.994 14.6877 165.952 14.8821 165.821 15.1138C165.685 15.3566 165.488 15.5754 165.251 15.7403L161.83 10.8108ZM163.038 11.1705H158.708V17.1705L163.038 17.1705V11.1705ZM161.7 14.3842C161.72 14.1154 161.797 13.8829 161.96 13.6406L156.974 10.3026C156.238 11.4011 155.81 12.6346 155.716 13.9567L161.7 14.3842ZM161.956 13.6453C162.055 13.4986 162.254 13.2875 162.715 13.0735L160.19 7.631C158.912 8.22389 157.787 9.0923 156.977 10.2978L161.956 13.6453ZM162.73 13.0667C163.084 12.8999 163.7 12.7386 164.708 12.7386V6.73864C163.113 6.73864 161.559 6.98642 160.175 7.63782L162.73 13.0667ZM164.708 12.7386C165.414 12.7386 165.959 12.8225 166.375 12.9463L168.087 7.19574C167.014 6.87641 165.878 6.73864 164.708 6.73864V12.7386ZM166.395 12.9523C166.855 13.0856 167.147 13.2445 167.331 13.383L170.931 8.58295C170.071 7.93732 169.095 7.48825 168.067 7.18979L166.395 12.9523ZM167.348 13.3955C167.543 13.5393 167.624 13.6552 167.665 13.7343L172.984 10.9589C172.48 9.99254 171.765 9.19935 170.915 8.57043L167.348 13.3955ZM167.683 13.7689C167.718 13.8331 167.742 13.9044 167.742 14.0341H173.742C173.742 12.9479 173.488 11.8942 172.966 10.9243L167.683 13.7689ZM167.742 14.0341V23H173.742V14.0341H167.742ZM170.742 20H166.344V26H170.742V20ZM169.344 23V21.1591H163.344V23H169.344ZM166.344 18.1591H166.242V24.1591H166.344V18.1591ZM163.597 19.7441C163.497 19.93 163.425 19.9923 163.409 20.0046L167.166 24.6829C167.901 24.0929 168.464 23.3654 168.888 22.574L163.597 19.7441ZM163.392 20.0187C163.351 20.0518 163.296 20.0862 163.194 20.1154L164.842 25.8846C165.694 25.6411 166.485 25.238 167.183 24.6688L163.392 20.0187ZM163.184 20.1181C163.022 20.1649 162.788 20.2045 162.458 20.2045V26.2045C163.265 26.2045 164.07 26.1078 164.851 25.8819L163.184 20.1181ZM163.992 23.2386C164.777 23.2386 165.552 23.0733 166.28 22.7293L163.716 17.3048C163.761 17.2832 163.813 17.2653 163.867 17.2535C163.92 17.2418 163.963 17.2386 163.992 17.2386V23.2386ZM166.261 22.7381C167.037 22.3777 167.706 21.8331 168.215 21.1216L163.332 17.6341C163.382 17.565 163.445 17.4948 163.522 17.4314C163.599 17.3683 163.673 17.3245 163.735 17.296L166.261 22.7381ZM168.215 21.1216C168.833 20.2552 169.072 19.2817 169.072 18.3636H163.072C163.072 18.3122 163.078 18.2076 163.119 18.069C163.161 17.9264 163.231 17.7757 163.332 17.6341L168.215 21.1216ZM169.072 18.3636V17.2727H163.072V18.3636H169.072ZM164.936 14.4961C164.891 14.5146 164.832 14.5364 164.757 14.5603L166.585 20.2749C166.795 20.2079 167.003 20.1332 167.208 20.0494L164.936 14.4961ZM164.722 14.5716C164.668 14.5896 164.595 14.6113 164.5 14.635L165.956 20.4559C166.179 20.4 166.401 20.3365 166.62 20.2637L164.722 14.5716ZM164.475 14.6415C164.389 14.6637 164.286 14.6872 164.164 14.7109L165.304 20.6016C165.533 20.5571 165.76 20.5068 165.981 20.4494L164.475 14.6415ZM164.145 14.7145C164.025 14.7386 163.892 14.7619 163.747 14.7839L164.646 20.7161C164.876 20.6813 165.102 20.6421 165.322 20.598L164.145 14.7145ZM163.734 14.786C163.141 14.8786 162.472 15.057 161.834 15.4148L164.77 20.6477C164.678 20.699 164.615 20.72 164.6 20.7249C164.584 20.7299 164.601 20.7233 164.66 20.714L163.734 14.786ZM161.856 15.4026C161.253 15.7345 160.657 16.2316 160.225 16.9451L165.356 20.0549C165.151 20.3934 164.896 20.578 164.748 20.6599L161.856 15.4026ZM160.211 16.9684C159.807 17.6484 159.629 18.3891 159.629 19.1136L165.629 19.1136C165.629 19.3836 165.558 19.7153 165.37 20.0316L160.211 16.9684ZM159.629 19.1136C159.629 20.2731 160.089 21.5004 161.204 22.3425L164.821 17.5553C165.069 17.7433 165.298 18.0109 165.451 18.3433C165.598 18.6634 165.629 18.9431 165.629 19.1136L159.629 19.1136ZM161.204 22.3425C162.095 23.0159 163.102 23.2386 163.992 23.2386V17.2386C164.087 17.2386 164.441 17.2682 164.821 17.5553L161.204 22.3425ZM172.99 23H169.99V26H172.99V23ZM172.99 9.90909V6.90909H169.99V9.90909H172.99ZM177.456 9.90909H180.456V6.90909H177.456V9.90909ZM177.456 12.3977L174.456 12.3977V15.3977L177.456 15.3977V12.3977ZM177.592 12.3977V15.3977H179.755L180.438 13.3464L177.592 12.3977ZM178.99 10.4545L177.231 8.02472V8.02472L178.99 10.4545ZM183.72 10.4716L181.943 12.8888L181.95 12.8938L181.957 12.8987L183.72 10.4716ZM184.922 12.3977L181.964 12.9011L182.389 15.3977H184.922V12.3977ZM185.058 12.3977V15.3977H187.341L187.95 13.1975L185.058 12.3977ZM186.473 10.4716L188.142 12.9647L188.148 12.9602L188.155 12.9556L186.473 10.4716ZM192.064 10.9489L189.905 13.0318L189.913 13.0397L192.064 10.9489ZM193.24 23V26H196.24V23H193.24ZM188.536 23H185.536V26H188.536V23ZM188.101 14.017L185.848 15.9981L185.856 16.0078L185.865 16.0174L188.101 14.017ZM185.783 14.017L183.51 12.0582L183.508 12.0614L185.783 14.017ZM185.365 23V26H188.365V23H185.365ZM180.865 23H177.865V26H180.865V23ZM180.43 14.017L178.177 15.9981L178.186 16.0078L178.195 16.0174L180.43 14.017ZM178.428 13.7443L180.034 16.2778V16.2778L178.428 13.7443ZM177.882 14.3835L175.166 13.1088L175.161 13.1212L175.155 13.1336L177.882 14.3835ZM177.695 23V26H180.695V23H177.695ZM175.99 23V9.90909H169.99V23H175.99ZM172.99 12.9091L177.456 12.9091V6.90909H172.99V12.9091ZM174.456 9.90909V12.3977L180.456 12.3977V9.90909L174.456 9.90909ZM177.456 15.3977H177.592V9.39773H177.456V15.3977ZM180.438 13.3464C180.525 13.0856 180.63 12.971 180.75 12.8844L177.231 8.02472C176.032 8.89264 175.205 10.0735 174.746 11.449L180.438 13.3464ZM180.75 12.8844C180.837 12.8207 180.988 12.7386 181.342 12.7386V6.73864C179.879 6.73864 178.461 7.13382 177.231 8.02472L180.75 12.8844ZM181.342 12.7386C181.701 12.7386 181.853 12.8223 181.943 12.8888L185.497 8.05435C184.258 7.14366 182.824 6.73864 181.342 6.73864V12.7386ZM181.957 12.8987C181.983 12.9175 181.992 12.9276 181.991 12.9264C181.991 12.926 181.988 12.9237 181.985 12.9194C181.982 12.9151 181.978 12.9097 181.974 12.9033C181.97 12.897 181.967 12.8907 181.964 12.885C181.961 12.8792 181.959 12.875 181.958 12.8728C181.958 12.8706 181.958 12.8713 181.959 12.8756C181.96 12.8798 181.962 12.8881 181.964 12.9011L187.879 11.8943C187.61 10.311 186.774 8.98235 185.483 8.04449L181.957 12.8987ZM184.922 15.3977H185.058V9.39773H184.922V15.3977ZM187.95 13.1975C187.968 13.1329 187.985 13.1057 187.996 13.0913C188.008 13.0752 188.044 13.0299 188.142 12.9647L184.804 7.97846C183.515 8.84174 182.589 10.0712 182.167 11.598L187.95 13.1975ZM188.155 12.9556C188.324 12.8413 188.569 12.7386 189.013 12.7386V6.73864C187.513 6.73864 186.065 7.12465 184.791 7.98754L188.155 12.9556ZM189.013 12.7386C189.562 12.7386 189.762 12.8841 189.905 13.0318L194.223 8.86589C192.809 7.39999 190.975 6.73864 189.013 6.73864V12.7386ZM189.913 13.0397C190.05 13.1814 190.24 13.4504 190.24 14.1705H196.24C196.24 12.2087 195.646 10.3299 194.215 8.85806L189.913 13.0397ZM190.24 14.1705V23H196.24V14.1705H190.24ZM193.24 20H188.536V26H193.24V20ZM191.536 23V15.3636H185.536V23H191.536ZM191.536 15.3636C191.536 14.2929 191.259 13.0472 190.337 12.0167L185.865 16.0174C185.707 15.8411 185.617 15.6582 185.572 15.5181C185.53 15.3884 185.536 15.3242 185.536 15.3636H191.536ZM190.354 12.036C189.426 10.9808 188.175 10.5227 186.933 10.5227V16.5227C186.838 16.5227 186.651 16.5057 186.422 16.4089C186.185 16.3087 185.989 16.1586 185.848 15.9981L190.354 12.036ZM186.933 10.5227C185.685 10.5227 184.431 10.9901 183.51 12.0582L188.055 15.9759C187.912 16.1411 187.712 16.2976 187.468 16.4027C187.231 16.5043 187.036 16.5227 186.933 16.5227V10.5227ZM183.508 12.0614C182.622 13.0922 182.365 14.3207 182.365 15.3636H188.365C188.365 15.2588 188.387 15.5896 188.058 15.9727L183.508 12.0614ZM182.365 15.3636V23H188.365V15.3636H182.365ZM185.365 20H180.865V26H185.365V20ZM183.865 23V15.3636H177.865V23H183.865ZM183.865 15.3636C183.865 14.2929 183.588 13.0472 182.666 12.0167L178.195 16.0174C178.037 15.8411 177.947 15.6582 177.901 15.5181C177.86 15.3884 177.865 15.3242 177.865 15.3636H183.865ZM182.683 12.036C181.755 10.9808 180.504 10.5227 179.263 10.5227V16.5227C179.167 16.5227 178.98 16.5057 178.752 16.4089C178.515 16.3087 178.319 16.1586 178.177 15.9981L182.683 12.036ZM179.263 10.5227C178.471 10.5227 177.613 10.7086 176.821 11.2108L180.034 16.2778C179.708 16.4846 179.407 16.5227 179.263 16.5227V10.5227ZM176.821 11.2108C176.052 11.6985 175.511 12.3752 175.166 13.1088L180.598 15.6582C180.515 15.8351 180.337 16.0856 180.034 16.2778L176.821 11.2108ZM175.155 13.1336C174.809 13.889 174.695 14.6637 174.695 15.3636L180.695 15.3636C180.695 15.3022 180.706 15.4235 180.609 15.6335L175.155 13.1336ZM174.695 15.3636V23H180.695V15.3636L174.695 15.3636ZM177.695 20H172.99V26H177.695V20ZM198.219 22.4375L196.801 25.0808L196.81 25.0856L196.819 25.0903L198.219 22.4375ZM195.893 20.1193L193.246 21.5319L193.251 21.5407L193.256 21.5496L195.893 20.1193ZM195.901 12.9432L198.542 14.3673V14.3672L195.901 12.9432ZM198.211 10.5824L199.688 13.1935V13.1935L198.211 10.5824ZM204.415 10.1989L205.488 7.39729L204.415 10.1989ZM206.469 11.5369L204.317 13.6267L204.322 13.6319L204.327 13.6371L206.469 11.5369ZM207.782 13.6506L204.968 14.6913L207.782 13.6506ZM208.242 17.5455V20.5455H211.242V17.5455H208.242ZM196.549 17.5455H193.549V20.5455H196.549V17.5455ZM196.549 14.9545V11.9545H193.549V14.9545H196.549ZM203.913 14.9545V17.9545H206.958L206.912 14.9091L203.913 14.9545ZM203.623 13.9659L201.082 15.5604L201.1 15.5896L201.119 15.6184L203.623 13.9659ZM202.881 13.2926L201.462 15.9356L201.491 15.9512L201.52 15.9661L202.881 13.2926ZM200.785 13.2926L202.126 15.9759L202.145 15.9664L202.164 15.9566L200.785 13.2926ZM200.018 13.9574L197.537 12.2705L197.525 12.2876L197.514 12.3049L200.018 13.9574ZM199.719 14.9545L196.721 14.865L196.719 14.9098V14.9545H199.719ZM199.984 18.875L197.338 20.2891V20.2891L199.984 18.875ZM200.742 19.6506L199.259 22.2581V22.2581L200.742 19.6506ZM202.822 19.7955L201.873 16.9494L201.864 16.9524L201.855 16.9555L202.822 19.7955ZM203.521 19.4034L205.505 21.6529L205.524 21.6367L205.542 21.6203L203.521 19.4034ZM203.947 18.7727V15.7727H201.862L201.135 17.7265L203.947 18.7727ZM208.242 18.7727L211.203 19.2539L211.769 15.7727H208.242V18.7727ZM207.194 21.142L209.503 23.0568L209.511 23.0471L207.194 21.142ZM205.004 22.6932L206.124 25.4762L206.133 25.4726L205.004 22.6932ZM201.833 20.2386C200.816 20.2386 200.114 20.0455 199.62 19.7847L196.819 25.0903C198.347 25.8977 200.054 26.2386 201.833 26.2386V20.2386ZM199.638 19.7942C199.15 19.5319 198.797 19.1815 198.53 18.689L193.256 21.5496C194.079 23.0685 195.278 24.2635 196.801 25.0808L199.638 19.7942ZM198.539 18.7068C198.279 18.2188 198.083 17.5165 198.083 16.4886H192.083C192.083 18.279 192.427 19.9971 193.246 21.5319L198.539 18.7068ZM198.083 16.4886C198.083 15.5455 198.271 14.8696 198.542 14.3673L193.261 11.5191C192.441 13.0395 192.083 14.7272 192.083 16.4886H198.083ZM198.542 14.3672C198.821 13.8502 199.189 13.4761 199.688 13.1935L196.734 7.97125C195.245 8.81371 194.073 10.0135 193.261 11.5191L198.542 14.3672ZM199.688 13.1935C200.155 12.9291 200.801 12.7386 201.731 12.7386V6.73864C199.956 6.73864 198.255 7.11065 196.734 7.97125L199.688 13.1935ZM201.731 12.7386C202.408 12.7386 202.932 12.8432 203.343 13.0004L205.488 7.39729C204.297 6.94092 203.031 6.73864 201.731 6.73864V12.7386ZM203.343 13.0004C203.758 13.1595 204.068 13.3705 204.317 13.6267L208.622 9.44719C207.734 8.53289 206.675 7.85184 205.488 7.39729L203.343 13.0004ZM204.327 13.6371C204.574 13.8885 204.795 14.2223 204.968 14.6913L210.596 12.6099C210.156 11.4198 209.502 10.3444 208.612 9.43672L204.327 13.6371ZM204.968 14.6913C205.132 15.1348 205.242 15.7089 205.242 16.4545H211.242C211.242 15.1207 211.045 13.8254 210.596 12.6099L204.968 14.6913ZM205.242 16.4545V17.5455H211.242V16.4545H205.242ZM208.242 14.5455L196.549 14.5455V20.5455H208.242V14.5455ZM199.549 17.5455V14.9545H193.549V17.5455H199.549ZM196.549 17.9545H203.913V11.9545H196.549V17.9545ZM206.912 14.9091C206.899 14.0224 206.661 13.1229 206.127 12.3134L201.119 15.6184C201.047 15.5089 200.992 15.3893 200.957 15.2699C200.923 15.1526 200.914 15.0582 200.913 15L206.912 14.9091ZM206.164 12.3714C205.686 11.6099 205.026 11.018 204.242 10.6191L201.52 15.9661C201.451 15.9307 201.368 15.8771 201.284 15.8012C201.2 15.725 201.133 15.6415 201.082 15.5604L206.164 12.3714ZM204.301 10.6496C203.505 10.2223 202.657 10.0455 201.833 10.0455V16.0455C201.818 16.0455 201.771 16.0438 201.701 16.0272C201.629 16.0102 201.546 15.9808 201.462 15.9356L204.301 10.6496ZM201.833 10.0455C201.003 10.0455 200.176 10.2293 199.405 10.6286L202.164 15.9566C202.104 15.9878 202.039 16.0119 201.974 16.0272C201.91 16.0423 201.861 16.0455 201.833 16.0455V10.0455ZM199.443 10.6093C198.683 10.9893 198.029 11.547 197.537 12.2705L202.499 15.6443C202.451 15.7138 202.391 15.7832 202.319 15.8452C202.248 15.9069 202.18 15.9491 202.126 15.9759L199.443 10.6093ZM197.514 12.3049C196.984 13.1077 196.747 13.9956 196.721 14.865L202.718 15.0441C202.717 15.0896 202.709 15.1724 202.677 15.2795C202.644 15.3888 202.592 15.5025 202.522 15.6099L197.514 12.3049ZM196.719 14.9545V17.75H202.719V14.9545H196.719ZM196.719 17.75C196.719 18.6011 196.901 19.4724 197.338 20.2891L202.629 17.4609C202.668 17.5329 202.692 17.6024 202.706 17.6607C202.719 17.7175 202.719 17.7502 202.719 17.75H196.719ZM197.338 20.2891C197.785 21.1259 198.444 21.7948 199.259 22.2581L202.226 17.0431C202.292 17.0809 202.372 17.1383 202.45 17.2184C202.529 17.2988 202.588 17.3837 202.629 17.4609L197.338 20.2891ZM199.259 22.2581C200.133 22.7555 201.067 22.9318 201.935 22.9318V16.9318C201.872 16.9318 202.011 16.9206 202.226 17.0431L199.259 22.2581ZM201.935 22.9318C202.54 22.9318 203.168 22.8467 203.789 22.6354L201.855 16.9555C201.941 16.926 201.978 16.9318 201.935 16.9318V22.9318ZM203.77 22.6415C204.381 22.4381 204.977 22.119 205.505 21.6529L201.536 17.1539C201.678 17.0287 201.808 16.971 201.873 16.9494L203.77 22.6415ZM205.542 21.6203C206.087 21.1233 206.5 20.5121 206.758 19.8189L201.135 17.7265C201.211 17.5219 201.341 17.3312 201.499 17.1865L205.542 21.6203ZM203.947 21.7727H208.242V15.7727L203.947 15.7727V21.7727ZM205.281 18.2915C205.213 18.7107 205.07 19.0012 204.876 19.237L209.511 23.0471C210.42 21.942 210.976 20.6529 211.203 19.2539L205.281 18.2915ZM204.884 19.2273C204.69 19.4615 204.388 19.7051 203.874 19.9138L206.133 25.4726C207.437 24.9426 208.595 24.1521 209.503 23.0568L204.884 19.2273ZM203.883 19.9102C203.411 20.1003 202.749 20.2386 201.833 20.2386V26.2386C203.337 26.2386 204.789 26.0133 206.124 25.4762L203.883 19.9102Z" fill="#2B2B2B"/>
</svg>
