<svg width="332" height="155" viewBox="0 0 332 155" fill="none" xmlns="http://www.w3.org/2000/svg">
<path d="M3 62V15.4545H35.7273V25.6364H15.6364V33.6364H33.7273V43.8182H15.6364V62H3Z" fill="#FFAA2C"/>
<path d="M53.1023 15.4545V62H40.5568V15.4545H53.1023ZM69.2216 62.5455C66.9943 62.5455 65.0246 62.1818 63.3125 61.4545C61.6155 60.7121 60.2822 59.5909 59.3125 58.0909C58.3428 56.5909 57.858 54.6818 57.858 52.3636C57.858 50.4545 58.1837 48.8258 58.8352 47.4773C59.4867 46.1136 60.3958 45 61.5625 44.1364C62.7292 43.2727 64.0852 42.6136 65.6307 42.1591C67.1913 41.7045 68.8731 41.4091 70.6761 41.2727C72.6307 41.1212 74.1989 40.9394 75.3807 40.7273C76.5777 40.5 77.4413 40.1894 77.9716 39.7955C78.5019 39.3864 78.767 38.8485 78.767 38.1818V38.0909C78.767 37.1818 78.4186 36.4848 77.7216 36C77.0246 35.5152 76.1307 35.2727 75.0398 35.2727C73.8428 35.2727 72.8655 35.5379 72.108 36.0682C71.3655 36.5833 70.9186 37.3788 70.767 38.4545H59.2216C59.3731 36.3333 60.0473 34.3788 61.2443 32.5909C62.4564 30.7879 64.2216 29.3485 66.5398 28.2727C68.858 27.1818 71.7519 26.6364 75.2216 26.6364C77.7216 26.6364 79.964 26.9318 81.9489 27.5227C83.9337 28.0985 85.6231 28.9091 87.017 29.9545C88.411 30.9848 89.4716 32.197 90.1989 33.5909C90.9413 34.9697 91.3125 36.4697 91.3125 38.0909V62H79.5852V57.0909H79.3125C78.6155 58.3939 77.767 59.447 76.767 60.25C75.7822 61.053 74.6534 61.6364 73.3807 62C72.1231 62.3636 70.7367 62.5455 69.2216 62.5455ZM73.3125 54.6364C74.267 54.6364 75.161 54.4394 75.9943 54.0455C76.8428 53.6515 77.5322 53.0833 78.0625 52.3409C78.5928 51.5985 78.858 50.697 78.858 49.6364V46.7273C78.5246 46.8636 78.1686 46.9924 77.7898 47.1136C77.4261 47.2348 77.0322 47.3485 76.608 47.4545C76.1989 47.5606 75.7595 47.6591 75.2898 47.75C74.8352 47.8409 74.358 47.9242 73.858 48C72.8883 48.1515 72.0928 48.4015 71.4716 48.75C70.8655 49.0833 70.411 49.5 70.108 50C69.8201 50.4848 69.6761 51.0303 69.6761 51.6364C69.6761 52.6061 70.017 53.3485 70.6989 53.8636C71.3807 54.3788 72.2519 54.6364 73.3125 54.6364ZM97.3068 62V27.0909H109.216V33.7273H109.58C110.307 31.5455 111.549 29.8182 113.307 28.5455C115.064 27.2727 117.155 26.6364 119.58 26.6364C122.034 26.6364 124.148 27.2879 125.92 28.5909C127.693 29.8788 128.761 31.5909 129.125 33.7273H129.489C130.08 31.5909 131.337 29.8788 133.261 28.5909C135.186 27.2879 137.443 26.6364 140.034 26.6364C143.383 26.6364 146.095 27.7121 148.17 29.8636C150.261 32.0152 151.307 34.8788 151.307 38.4545V62H138.761V41.6364C138.761 40.1061 138.375 38.9091 137.602 38.0455C136.83 37.1667 135.792 36.7273 134.489 36.7273C133.201 36.7273 132.178 37.1667 131.42 38.0455C130.678 38.9091 130.307 40.1061 130.307 41.6364V62H118.307V41.6364C118.307 40.1061 117.92 38.9091 117.148 38.0455C116.375 37.1667 115.337 36.7273 114.034 36.7273C113.17 36.7273 112.428 36.9242 111.807 37.3182C111.186 37.7121 110.701 38.2803 110.352 39.0227C110.019 39.75 109.852 40.6212 109.852 41.6364V62H97.3068ZM157.494 62V27.0909H170.04V62H157.494ZM163.767 23.4545C162.07 23.4545 160.616 22.8939 159.403 21.7727C158.191 20.6515 157.585 19.303 157.585 17.7273C157.585 16.1515 158.191 14.803 159.403 13.6818C160.616 12.5606 162.07 12 163.767 12C165.479 12 166.934 12.5606 168.131 13.6818C169.343 14.803 169.949 16.1515 169.949 17.7273C169.949 19.303 169.343 20.6515 168.131 21.7727C166.934 22.8939 165.479 23.4545 163.767 23.4545ZM188.977 42.3636V62H176.432V27.0909H188.341V33.7273H188.705C189.462 31.5152 190.795 29.7803 192.705 28.5227C194.629 27.2652 196.871 26.6364 199.432 26.6364C201.902 26.6364 204.045 27.2045 205.864 28.3409C207.697 29.4621 209.114 31.0076 210.114 32.9773C211.129 34.947 211.629 37.197 211.614 39.7273V62H199.068V42.3636C199.083 40.6364 198.644 39.2803 197.75 38.2955C196.871 37.3106 195.644 36.8182 194.068 36.8182C193.038 36.8182 192.136 37.0455 191.364 37.5C190.606 37.9394 190.023 38.5758 189.614 39.4091C189.205 40.2273 188.992 41.2121 188.977 42.3636ZM234.625 75.8182C231.125 75.8182 228.125 75.3182 225.625 74.3182C223.14 73.3333 221.208 71.9697 219.83 70.2273C218.466 68.5 217.701 66.5152 217.534 64.2727H229.625C229.746 65.0152 230.049 65.6136 230.534 66.0682C231.019 66.5227 231.64 66.8485 232.398 67.0455C233.17 67.2576 234.034 67.3636 234.989 67.3636C236.61 67.3636 237.951 66.9697 239.011 66.1818C240.087 65.3939 240.625 63.9697 240.625 61.9091V56H240.261C239.807 57.1818 239.11 58.1894 238.17 59.0227C237.231 59.8409 236.102 60.4697 234.784 60.9091C233.466 61.3333 232.019 61.5455 230.443 61.5455C227.958 61.5455 225.67 60.9697 223.58 59.8182C221.504 58.6667 219.837 56.8409 218.58 54.3409C217.337 51.8409 216.716 48.5758 216.716 44.5455C216.716 40.3333 217.367 36.9091 218.67 34.2727C219.989 31.6364 221.686 29.7045 223.761 28.4773C225.852 27.25 228.049 26.6364 230.352 26.6364C232.08 26.6364 233.595 26.9394 234.898 27.5455C236.201 28.1364 237.292 28.9318 238.17 29.9318C239.049 30.9167 239.716 32 240.17 33.1818H240.443V27.0909H252.989V61.9091C252.989 64.8636 252.223 67.3712 250.693 69.4318C249.178 71.5076 247.042 73.0909 244.284 74.1818C241.527 75.2727 238.307 75.8182 234.625 75.8182ZM235.08 52.6364C236.231 52.6364 237.216 52.3182 238.034 51.6818C238.867 51.0303 239.504 50.1061 239.943 48.9091C240.398 47.697 240.625 46.2424 240.625 44.5455C240.625 42.8182 240.398 41.3409 239.943 40.1136C239.504 38.8712 238.867 37.9242 238.034 37.2727C237.216 36.6061 236.231 36.2727 235.08 36.2727C233.928 36.2727 232.943 36.6061 232.125 37.2727C231.322 37.9242 230.701 38.8712 230.261 40.1136C229.837 41.3409 229.625 42.8182 229.625 44.5455C229.625 46.2727 229.837 47.7424 230.261 48.9545C230.701 50.1515 231.322 51.0682 232.125 51.7045C232.943 52.3258 233.928 52.6364 235.08 52.6364ZM269.733 15.4545V20.9091C269.733 22.3939 269.43 23.8788 268.824 25.3636C268.233 26.8333 267.475 28.2045 266.551 29.4773C265.642 30.7348 264.703 31.7879 263.733 32.6364L258.551 30C259.188 28.9091 259.756 27.6439 260.256 26.2045C260.756 24.7651 261.006 23 261.006 20.9091V15.4545H269.733ZM303.716 38.4545H292.17C292.11 37.7424 291.86 37.1288 291.42 36.6136C290.981 36.0985 290.413 35.7045 289.716 35.4318C289.034 35.1439 288.277 35 287.443 35C286.367 35 285.443 35.197 284.67 35.5909C283.898 35.9848 283.519 36.5455 283.534 37.2727C283.519 37.7879 283.739 38.2652 284.193 38.7045C284.663 39.1439 285.564 39.4848 286.898 39.7273L293.989 41C297.564 41.6515 300.223 42.75 301.966 44.2955C303.723 45.8258 304.61 47.8788 304.625 50.4545C304.61 52.9394 303.867 55.0985 302.398 56.9318C300.943 58.75 298.951 60.1591 296.42 61.1591C293.905 62.1439 291.034 62.6364 287.807 62.6364C282.473 62.6364 278.299 61.5455 275.284 59.3636C272.284 57.1818 270.61 54.303 270.261 50.7273H282.716C282.883 51.8333 283.428 52.6894 284.352 53.2955C285.292 53.8864 286.473 54.1818 287.898 54.1818C289.049 54.1818 289.996 53.9848 290.739 53.5909C291.496 53.197 291.883 52.6364 291.898 51.9091C291.883 51.2424 291.549 50.7121 290.898 50.3182C290.261 49.9242 289.261 49.6061 287.898 49.3636L281.716 48.2727C278.155 47.6515 275.489 46.4697 273.716 44.7273C271.943 42.9848 271.064 40.7424 271.08 38C271.064 35.5758 271.701 33.5227 272.989 31.8409C274.292 30.1439 276.148 28.8561 278.557 27.9773C280.981 27.0833 283.852 26.6364 287.17 26.6364C292.216 26.6364 296.193 27.6818 299.102 29.7727C302.027 31.8636 303.564 34.7576 303.716 38.4545ZM49.4716 140.545C47.2443 140.545 45.2746 140.182 43.5625 139.455C41.8655 138.712 40.5322 137.591 39.5625 136.091C38.5928 134.591 38.108 132.682 38.108 130.364C38.108 128.455 38.4337 126.826 39.0852 125.477C39.7367 124.114 40.6458 123 41.8125 122.136C42.9792 121.273 44.3352 120.614 45.8807 120.159C47.4413 119.705 49.1231 119.409 50.9261 119.273C52.8807 119.121 54.4489 118.939 55.6307 118.727C56.8277 118.5 57.6913 118.189 58.2216 117.795C58.7519 117.386 59.017 116.848 59.017 116.182V116.091C59.017 115.182 58.6686 114.485 57.9716 114C57.2746 113.515 56.3807 113.273 55.2898 113.273C54.0928 113.273 53.1155 113.538 52.358 114.068C51.6155 114.583 51.1686 115.379 51.017 116.455H39.4716C39.6231 114.333 40.2973 112.379 41.4943 110.591C42.7064 108.788 44.4716 107.348 46.7898 106.273C49.108 105.182 52.0019 104.636 55.4716 104.636C57.9716 104.636 60.214 104.932 62.1989 105.523C64.1837 106.098 65.8731 106.909 67.267 107.955C68.661 108.985 69.7216 110.197 70.4489 111.591C71.1913 112.97 71.5625 114.47 71.5625 116.091V140H59.8352V135.091H59.5625C58.8655 136.394 58.017 137.447 57.017 138.25C56.0322 139.053 54.9034 139.636 53.6307 140C52.3731 140.364 50.9867 140.545 49.4716 140.545ZM53.5625 132.636C54.517 132.636 55.411 132.439 56.2443 132.045C57.0928 131.652 57.7822 131.083 58.3125 130.341C58.8428 129.598 59.108 128.697 59.108 127.636V124.727C58.7746 124.864 58.4186 124.992 58.0398 125.114C57.6761 125.235 57.2822 125.348 56.858 125.455C56.4489 125.561 56.0095 125.659 55.5398 125.75C55.0852 125.841 54.608 125.924 54.108 126C53.1383 126.152 52.3428 126.402 51.7216 126.75C51.1155 127.083 50.661 127.5 50.358 128C50.0701 128.485 49.9261 129.03 49.9261 129.636C49.9261 130.606 50.267 131.348 50.9489 131.864C51.6307 132.379 52.5019 132.636 53.5625 132.636ZM83.7386 140L75.0114 105.091H87.5568L91.5568 126.364H91.8295L96.2841 105.091H108.466L113.102 126.182H113.375L117.193 105.091H129.739L121.011 140H107.466L102.557 121.273H102.193L97.2841 140H83.7386Z" fill="white"/>
<path d="M3 140V93.4545H15.6364V129.818H34.4545V140H3Z" fill="#33CE68"/>
<path d="M330.383 140.762V97.48H325.425V136.139H309.278V140.762H330.383Z" fill="#FFAA2C"/>
<path d="M331.383 15.2381V58.5201H326.425V19.8611H310.278V15.2381H331.383Z" fill="#33CE68"/>
<rect x="3" y="75" width="160" height="9" fill="#FFAA2C"/>
<rect x="163" y="79" width="168" height="9" fill="#33CE68"/>
<path d="M150.523 122.182V124.546H145.068V122.182H150.523ZM165.818 117.36L164.234 116.352C163.802 116.448 163.29 116.464 162.986 116.464C162.09 116.464 156.778 116.464 155.578 116.464C155.05 116.464 154.154 116.4 153.674 116.336V118.592C154.09 118.576 154.842 118.528 155.578 118.528C156.778 118.528 162.058 118.528 163.034 118.528C162.81 119.904 162.218 121.712 161.146 123.056C159.85 124.672 158.058 126.064 154.874 126.8L156.618 128.72C159.482 127.808 161.61 126.208 163.05 124.304C164.394 122.512 165.098 120.032 165.466 118.464C165.546 118.128 165.658 117.664 165.818 117.36ZM170.714 127.376L172.218 128.688C172.602 128.432 172.954 128.32 173.162 128.256C176.938 127.024 180.266 125.104 182.458 122.496L181.322 120.672C179.274 123.184 175.706 125.232 173.098 125.968C173.098 124.752 173.098 119.424 173.098 117.648C173.098 117.04 173.162 116.448 173.242 115.84H170.73C170.826 116.288 170.922 117.056 170.922 117.648C170.922 119.44 170.922 125.12 170.922 126.336C170.922 126.704 170.89 126.976 170.714 127.376ZM184.586 121.792L185.578 123.808C188.106 123.056 190.698 121.856 192.506 120.784C194.394 119.648 196.346 118.144 197.802 116.672L196.074 115.04C195.034 116.304 193.21 117.904 191.578 118.912C189.786 120.016 187.45 121.056 184.586 121.792ZM191.242 119.952V126.624C191.242 127.328 191.178 128.336 191.114 128.72H193.658C193.546 128.32 193.514 127.328 193.514 126.624V119.408L191.242 119.952ZM204.138 115.472L203.402 117.376C205.658 117.664 210.186 118.672 212.058 119.36L212.874 117.376C210.858 116.672 206.25 115.728 204.138 115.472ZM203.418 119.776L202.666 121.712C205.05 122.096 209.162 123.024 210.986 123.728L211.77 121.728C209.77 121.04 205.706 120.16 203.418 119.776ZM202.586 124.368L201.786 126.368C204.346 126.768 209.418 127.872 211.578 128.752L212.458 126.752C210.25 125.936 205.338 124.784 202.586 124.368ZM219.45 115.84L217.93 117.456C219.098 118.256 221.114 120 221.946 120.896L223.578 119.232C222.634 118.256 220.554 116.592 219.45 115.84ZM217.434 126.496L218.794 128.608C221.034 128.224 223.098 127.344 224.73 126.368C227.306 124.816 229.434 122.608 230.634 120.432L229.402 118.192C228.378 120.352 226.298 122.784 223.562 124.416C222.01 125.328 219.946 126.144 217.434 126.496ZM244.058 114.896L242.778 115.424C243.21 116.032 243.706 116.992 244.042 117.648L245.322 117.088C245.018 116.496 244.458 115.488 244.058 114.896ZM245.946 114.176L244.682 114.704C245.114 115.296 245.626 116.24 245.962 116.896L247.242 116.352C246.954 115.792 246.362 114.784 245.946 114.176ZM245.482 118.416L243.85 117.408C243.482 117.536 242.954 117.6 242.458 117.6C241.946 117.6 238.602 117.6 237.882 117.6L237.146 119.424H242.538C242.282 120.608 241.354 122.528 240.266 123.776C238.874 125.36 237.098 126.752 233.818 127.744L235.706 129.424C238.714 128.24 240.65 126.768 242.17 124.912C243.61 123.136 244.522 120.992 244.954 119.568C245.082 119.168 245.306 118.736 245.482 118.416ZM240.266 115.888L237.93 115.12C237.786 115.664 237.45 116.416 237.21 116.8C236.41 118.176 235.018 120.24 232.202 121.952L234.01 123.28C236.298 121.712 238.218 119.456 239.29 117.52C239.482 117.184 239.898 116.448 240.266 115.888ZM257.05 117.04L254.858 116.976C254.698 118.656 254.346 120.496 253.882 122C253.21 124.16 252.602 125.184 251.914 125.184C251.306 125.184 250.666 124.4 250.666 122.784C250.666 120.768 252.522 118 255.914 118C258.682 118 260.25 119.792 260.25 122.304C260.25 124.656 258.65 126.112 256.618 126.608C256.186 126.704 255.738 126.784 255.114 126.864L256.33 128.752C260.362 128.128 262.426 125.744 262.426 122.384C262.426 118.88 259.914 116.128 255.962 116.128C251.818 116.128 248.602 119.296 248.602 122.976C248.602 125.68 250.074 127.648 251.866 127.648C253.61 127.648 254.986 125.664 255.946 122.432C256.506 120.544 256.826 118.672 257.05 117.04ZM268.538 120.832V122.656H278.922V120.832H268.538ZM269.338 116.72V118.544H278.154V116.72H269.338ZM272.666 114.416V122.16H274.666V114.416H272.666ZM268.538 126.864L268.794 128.8C271.05 128.64 274.218 128.4 277.21 128.144V126.416C274.058 126.592 270.682 126.784 268.538 126.864ZM274.666 124.656C275.834 126.128 277.05 128.144 277.482 129.456L279.306 128.448C278.81 127.088 277.514 125.2 276.33 123.776L274.666 124.656ZM271.434 122.112C271.018 123.76 270.218 125.952 269.498 127.36L271.21 127.904C271.946 126.576 272.858 124.528 273.562 122.672L271.434 122.112ZM264.954 115.888C266.01 116.336 267.338 117.104 267.962 117.68L269.082 116.112C268.41 115.552 267.05 114.864 266.01 114.48L264.954 115.888ZM264.042 120.256C265.098 120.656 266.442 121.376 267.082 121.904L268.154 120.304C267.45 119.776 266.074 119.152 265.034 118.8L264.042 120.256ZM264.49 127.984L266.154 129.232C267.05 127.68 267.994 125.856 268.778 124.16L267.322 122.944C266.442 124.784 265.29 126.784 264.49 127.984ZM288.762 116.368V125.424H290.618V116.368H288.762ZM292.538 114.736V127.104C292.538 127.408 292.41 127.504 292.106 127.504C291.77 127.52 290.73 127.52 289.674 127.472C289.962 128.016 290.266 128.912 290.346 129.456C291.818 129.456 292.89 129.392 293.562 129.088C294.202 128.768 294.442 128.24 294.442 127.12V114.736H292.538ZM282.01 125.568C281.578 126.592 280.794 127.648 279.946 128.336C280.41 128.592 281.194 129.152 281.562 129.488C282.41 128.672 283.354 127.36 283.898 126.08L282.01 125.568ZM284.634 126.272C285.322 127.152 286.042 128.384 286.346 129.184L288.106 128.352C287.754 127.552 287.018 126.416 286.298 125.584L284.634 126.272ZM282.794 119.552H285.626V120.88H282.794V119.552ZM282.794 122.4H285.626V123.728H282.794V122.4ZM282.794 116.736H285.626V118.048H282.794V116.736ZM280.986 115.04V125.424H287.53V115.04H280.986ZM302.116 122.182V124.546H296.662V122.182H302.116Z" fill="white"/>
</svg>
